<?xml version="1.0" encoding="UTF-8" standalone="no"?>
<svg
   xmlns:dc="http://purl.org/dc/elements/1.1/"
   xmlns:cc="http://creativecommons.org/ns#"
   xmlns:rdf="http://www.w3.org/1999/02/22-rdf-syntax-ns#"
   xmlns:svg="http://www.w3.org/2000/svg"
   xmlns="http://www.w3.org/2000/svg"
   xmlns:sodipodi="http://sodipodi.sourceforge.net/DTD/sodipodi-0.dtd"
   xmlns:inkscape="http://www.inkscape.org/namespaces/inkscape"
   width="389.7735"
   height="337.55374"
   viewBox="0 0 194.88675 168.77687"
   version="1.1"
   id="svg12"
   sodipodi:docname="hexBrickNonDestr.svg"
   inkscape:version="0.92.1 r15371">
  <metadata
     id="metadata18">
    <rdf:RDF>
      <cc:Work
         rdf:about="">
        <dc:format>image/svg+xml</dc:format>
        <dc:type
           rdf:resource="http://purl.org/dc/dcmitype/StillImage" />
        <dc:title></dc:title>
      </cc:Work>
    </rdf:RDF>
  </metadata>
  <defs
     id="defs16" />
  <sodipodi:namedview
     pagecolor="#ffffff"
     bordercolor="#666666"
     borderopacity="1"
     objecttolerance="10"
     gridtolerance="10"
     guidetolerance="10"
     inkscape:pageopacity="0"
     inkscape:pageshadow="2"
     inkscape:window-width="1366"
     inkscape:window-height="745"
     id="namedview14"
     showgrid="false"
     inkscape:zoom="1.44"
     inkscape:cx="194.88675"
     inkscape:cy="140.9991"
     inkscape:window-x="1432"
     inkscape:window-y="-8"
     inkscape:window-maximized="1"
     inkscape:current-layer="svg12" />
  <polygon
     style="fill:none;stroke:#000000;stroke-width:2.5px"
     points="4,100 52,16.861561 148,16.861561 196,100 148,183.13844 52,183.13844 "
     id="polygon10"
     transform="translate(-2.5566243,-15.611561)" />
  <path
     style="fill:none;stroke-width:0.69444442"
     d="M 99.62059,330.54769 C 99.074646,329.68832 77.828715,292.93742 52.407408,248.87903 L 6.186853,168.77287 53.456016,86.899861 100.72518,5.0268615 l 94.19884,0.00934 94.19884,0.00934 47.09451,81.6139765 c 25.90197,44.887692 46.99572,82.023792 46.875,82.524672 -0.12073,0.50088 -21.27081,37.36413 -47.00016,81.91834 l -46.78066,81.00765 h -94.34917 -94.34916 z"
     id="path3695"
     inkscape:connector-curvature="0"
     transform="scale(0.5)" />
  <path
     style="fill:none;stroke-width:0.69444442"
     d="M 99.62059,330.54769 C 99.074646,329.68832 77.828715,292.93742 52.407408,248.87903 L 6.186853,168.77287 53.456016,86.899861 100.72518,5.0268615 l 94.19884,0.00934 94.19884,0.00934 47.09451,81.6139765 c 25.90197,44.887692 46.99572,82.023792 46.875,82.524672 -0.12073,0.50088 -21.27081,37.36413 -47.00016,81.91834 l -46.78066,81.00765 h -94.34917 -94.34916 z"
     id="path3697"
     inkscape:connector-curvature="0"
     transform="scale(0.5)" />
  <path
     style="fill:none;stroke-width:0.69444442"
     d="M 99.62059,330.54769 C 99.074646,329.68832 77.828715,292.93742 52.407408,248.87903 L 6.186853,168.77287 53.456016,86.899861 100.72518,5.0268615 l 94.19884,0.00934 94.19884,0.00934 47.09451,81.6139765 c 25.90197,44.887692 46.99572,82.023792 46.875,82.524672 -0.12073,0.50088 -21.27081,37.36413 -47.00016,81.91834 l -46.78066,81.00765 h -94.34917 -94.34916 z"
     id="path3699"
     inkscape:connector-curvature="0"
     transform="scale(0.5)" />
  <path
     style="fill:none;stroke-width:0.69444442"
     d="M 99.62059,330.54769 C 99.074646,329.68832 77.828715,292.93742 52.407408,248.87903 L 6.186853,168.77287 53.456016,86.899861 100.72518,5.0268615 l 94.19884,0.00934 94.19884,0.00934 47.09451,81.6139765 c 25.90197,44.887692 46.99572,82.023792 46.875,82.524672 -0.12073,0.50088 -21.27081,37.36413 -47.00016,81.91834 l -46.78066,81.00765 h -94.34917 -94.34916 z"
     id="path3701"
     inkscape:connector-curvature="0"
     transform="scale(0.5)" />
  <path
     style="fill:none;stroke-width:0.69444442"
     d="M 99.62059,330.54769 C 99.074646,329.68832 77.828715,292.93742 52.407408,248.87903 L 6.186853,168.77287 53.456016,86.899861 100.72518,5.0268615 l 94.19884,0.00934 94.19884,0.00934 47.09451,81.6139765 c 25.90197,44.887692 46.99572,82.023792 46.875,82.524672 -0.12073,0.50088 -21.27081,37.36413 -47.00016,81.91834 l -46.78066,81.00765 h -94.34917 -94.34916 z"
     id="path3703"
     inkscape:connector-curvature="0"
     transform="scale(0.5)" />
  <path
     style="fill:none;stroke-width:0.69444442"
     d="M 99.62059,330.54769 C 99.074646,329.68832 77.828715,292.93742 52.407408,248.87903 L 6.186853,168.77287 53.456016,86.899861 100.72518,5.0268615 l 94.19884,0.00934 94.19884,0.00934 47.09451,81.6139765 c 25.90197,44.887692 46.99572,82.023792 46.875,82.524672 -0.12073,0.50088 -21.27081,37.36413 -47.00016,81.91834 l -46.78066,81.00765 h -94.34917 -94.34916 z"
     id="path3705"
     inkscape:connector-curvature="0"
     transform="scale(0.5)" />
  <path
     style="fill:none;stroke-width:0.69444442"
     d="M 99.62059,330.54769 C 99.074646,329.68832 77.828715,292.93742 52.407408,248.87903 L 6.186853,168.77287 53.456016,86.899861 100.72518,5.0268615 l 94.19884,0.00934 94.19884,0.00934 47.09451,81.6139765 c 25.90197,44.887692 46.99572,82.023792 46.875,82.524672 -0.12073,0.50088 -21.27081,37.36413 -47.00016,81.91834 l -46.78066,81.00765 h -94.34917 -94.34916 z"
     id="path3707"
     inkscape:connector-curvature="0"
     transform="scale(0.5)" />
  <path
     style="fill:none;stroke-width:0.69444442"
     d="M 99.62059,330.54769 C 99.074646,329.68832 77.828715,292.93742 52.407408,248.87903 L 6.186853,168.77287 53.456016,86.899861 100.72518,5.0268615 l 94.19884,0.00934 94.19884,0.00934 47.09451,81.6139765 c 25.90197,44.887692 46.99572,82.023792 46.875,82.524672 -0.12073,0.50088 -21.27081,37.36413 -47.00016,81.91834 l -46.78066,81.00765 h -94.34917 -94.34916 z"
     id="path3709"
     inkscape:connector-curvature="0"
     transform="scale(0.5)" />
  <path
     style="fill:none;stroke-width:0.5"
     id="path3711"
     d="m 68.961745,55.398205 c -0.0316,0.97167 -0.0194,1.944185 -0.01395,2.916185 0.05749,0.62121 0.1587,1.239315 0.358505,1.83077 0.219615,0.612035 0.284375,1.25753 0.316115,1.902195 0.127155,0.979075 0.385865,1.932885 0.53638,2.90955 0.11131,1.077045 0.379895,2.127 0.67077,3.16713 0.301705,1.19241 0.707725,2.34718 1.17796,3.48221 0.501475,1.075665 1.136535,2.079195 1.70951,3.11636 0.549575,1.13289 1.174605,2.218405 1.86376,3.270475 0.57754,0.748035 1.05874,1.55809 1.57151,2.34921 0.52717,0.695495 1.133535,1.312165 1.74584,1.930315 0.535865,0.55934 1.160055,1.008765 1.756755,1.49479 0.58358,0.380195 1.07536,0.870995 1.686345,1.20836 0.66919,0.449395 1.455435,0.642695 2.18526,0.95651 0.70088,0.280305 1.44796,0.367365 2.194775,0.41428 0.700195,0.0308 1.401335,0.02455 2.10201,0.0224 0.827935,-0.0015 1.655865,0.0025 2.48381,0.001 0.78774,-0.0025 1.575485,-0.0045 2.363235,-0.0057 0.70909,0.06926 1.38213,-0.07425 2.07446,-0.192295 1.01589,-0.345035 2.04908,-0.63527 3.09357,-0.879645 0.93822,-0.136635 1.688295,-0.67834 2.527925,-1.053465 3.68947,-2.33812 -14.67367,8.69646 0.96613,-0.559305 1.35607,-0.802535 -5.433415,3.19282 -4.09927,2.35434 0.660145,-0.414885 10.84695,-6.270185 0.70265,-0.431645 0.893915,-0.52676 1.69147,-1.179615 2.44962,-1.88283 0.89669,-0.84972 1.78933,-1.69362 2.59608,-2.63 1.18737,-1.37356 2.26193,-2.838635 3.19826,-4.39367 0.55279,-1.02686 1.18208,-2.007785 1.78914,-3.00199 0.51984,-0.88547 1.01994,-1.78225 1.53091,-2.67277 0.59268,-0.730065 0.9385,-1.515865 1.15479,-2.426015 0.22381,-1.113225 0.28176,-2.249335 0.30851,-3.381625 -0.005,-0.88917 0.0588,-1.781985 -0.0917,-2.66173 -0.15697,-0.492415 -0.39985,-0.942895 -0.66971,-1.380915 -0.28377,-0.582985 -0.72822,-1.057855 -1.08554,-1.594225 -0.47221,-0.71611 -1.0093,-1.39195 -1.58002,-2.03162 -0.46444,-0.581535 -1.0239,-1.075805 -1.51676,-1.631685 -0.45647,-0.393325 -0.90703,-0.79821 -1.38658,-1.16414 -0.6432,-0.433305 -1.20829,-0.96352 -1.86621,-1.377625 -0.86865,-0.563955 -1.73961,-1.121465 -2.63389,-1.644255 -0.88941,-0.47674 -1.714535,-1.058465 -2.571655,-1.587755 -0.769585,-0.454658 -1.5865,-0.795173 -2.434805,-1.070348 -0.13666,-0.03531 -0.273305,-0.07067 -0.409975,-0.105927 -0.05342,-0.01378 -0.452495,-0.108609 -0.543535,-0.155497 -1.76544,-0.90927 2.87245,-3.155824 4.64778,-2.814447 0.32486,0.150746 0.162885,0.08187 0.48547,0.207642 0,0 -4.282735,2.875206 -4.282735,2.875206 v 0 c -0.309575,-0.120043 -0.15803,-0.06773 -0.45386,-0.159173 -1.948415,-0.637388 2.45835,-3.410841 3.88157,-3.008579 0.165835,0.04687 0.32734,0.107998 0.49211,0.158506 0.141065,0.04324 0.282115,0.08653 0.423175,0.129797 0.86866,0.310437 1.7067,0.680935 2.48854,1.176313 0.84891,0.538999 1.69112,1.090048 2.57072,1.578441 0.88621,0.552209 1.7743,1.100871 2.66166,1.650286 0.65146,0.44725 1.24471,0.96893 1.90158,1.40819 0.48899,0.40003 0.9914,0.789175 1.43474,1.239705 0.49448,0.553595 1.03738,1.06371 1.49234,1.65184 0.57264,0.668605 1.15025,1.33838 1.63625,2.07403 0.36365,0.5376 0.81062,1.01849 1.10333,1.60254 0.31233,0.491225 0.572,1.00629 0.75651,1.56007 0.16453,0.918285 0.10618,1.84252 0.0939,2.772385 -0.0202,1.16216 -0.0497,2.32553 -0.27201,3.471035 -0.17851,0.943885 -0.35304,1.852465 -1.04236,2.57183 -0.5834,0.848045 -1.01454,1.79835 -1.5683,2.66687 -0.55884,1.036055 -1.27275,1.980845 -1.82422,3.0227 -0.90631,1.586775 -2.00823,3.05442 -3.16586,4.46604 -0.76016,0.974865 -1.62177,1.822325 -2.52166,2.66784 -0.74765,0.72364 -1.51294,1.423355 -2.40032,1.975005 -1.58781,0.925245 -3.17436,1.852675 -4.763435,2.775735 -1.357755,0.788685 5.402645,-3.202125 4.069445,-2.37261 -1.53631,0.95589 -3.16143,1.766495 -4.678995,2.751875 -1.31305,0.85258 5.427505,-3.12366 4.064745,-2.353035 -1.58238,0.89482 -3.145335,1.82361 -4.723625,2.72562 -0.106275,0.06074 -0.219625,0.10817 -0.32944,0.162255 -0.81527,0.42151 -1.6442,0.76703 -2.554175,0.93794 -1.061195,0.26806 -2.092785,0.63651 -3.158085,0.882545 -0.70516,0.117265 -1.408715,0.15052 -2.123735,0.12215 -0.783135,-0.001 -1.566265,-0.003 -2.3494,-0.0035 -0.83322,1.8e-4 -1.666395,0.0072 -2.499605,0.01055 -0.708705,-0.001 -1.418675,5e-4 -2.125355,-0.06036 -0.781705,-0.08442 -1.553765,-0.23291 -2.280335,-0.54556 C 79.49787,88.486805 78.72006,88.21812 78.02998,87.767435 77.426135,87.38302 76.882755,86.91554 76.29829,86.50269 75.682175,86.013795 75.086015,85.509795 74.54073,84.94029 73.903115,84.29612 73.24181,83.67504 72.730395,82.919615 72.23335,82.11527 71.72121,81.331055 71.156275,80.572065 70.497115,79.49356 69.901955,78.38177 69.33059,77.25405 68.712775,76.21773 68.06776,75.193475 67.555,74.099235 67.08083,72.94379 66.68421,71.766425 66.38283,70.55344 c -0.326605,-1.05065 -0.659955,-2.1076 -0.740495,-3.211815 -0.136615,-0.993455 -0.38725,-1.95817 -0.58456,-2.93891 -0.03105,-0.59648 -0.06609,-1.19893 -0.26442,-1.76812 -0.22118,-0.646485 -0.337605,-1.31491 -0.407815,-1.995205 0.0054,-0.96726 0.0179,-1.935055 -0.01395,-2.90197 0,0 4.590155,-2.3388 4.590155,-2.3388 z"
     inkscape:connector-curvature="0" />
  <path
     style="fill:none;stroke-width:0.5"
     id="path3713"
     d="m 95.24991,101.28507 c -0.12085,-0.96881 -0.533865,-1.83707 -1.001125,-2.678515 -0.44899,-0.699975 -0.904645,-1.394455 -1.33756,-2.1049 -0.43814,-0.75131 -0.848875,-1.513745 -1.24441,-2.288565 -0.47143,-1.073455 -1.05893,-2.082135 -1.751925,-3.02635 -0.867965,-1.217425 -1.679465,-2.472525 -2.50422,-3.719225 -0.96446,-1.22975 -1.851825,-2.515295 -2.736495,-3.80275 -0.8867,-1.26561 -1.78668,-2.521235 -2.612365,-3.82795 -1.188255,-1.75217 -2.44313,-3.45739 -3.735545,-5.134295 -0.977545,-1.42364 -2.16045,-2.68856 -3.19621,-4.06505 -0.987595,-1.262825 -1.9919,-2.509585 -3.01597,-3.742785 -1.392295,-1.683285 -2.84472,-3.32217 -4.37836,-4.8783 C 66.778115,61.04634 65.82056,60.06752 64.766755,59.20217 63.733185,58.249555 62.62044,57.38298 61.48641,56.552125 60.657685,55.94477 59.79558,55.38258 59.043285,54.6798 c -0.56162,-0.421995 -1.024055,-0.95302 -1.60096,-1.35475 -0.521305,-0.191555 -1.02946,-0.596285 -1.601685,-0.574285 -0.57887,1.81056 -0.126785,0.23239 4.245735,-2.35181 0.0145,-0.0086 -0.03825,0.0211 -0.034,0.0374 0.016,0.06093 0.05345,0.11453 0.08776,0.167355 0.12058,0.18563 0.26,0.358335 0.38726,0.53945 0.624125,0.646015 1.211215,1.32546 1.85598,1.95363 0.815535,0.85437 1.659885,1.68125 2.49685,2.514795 1.19957,1.288595 2.59064,2.33874 4.008755,3.37132 2.119175,1.507045 4.326065,2.88284 6.49489,4.315055 1.4957,1.09065 3.203655,1.75855 4.925175,2.390785 2.513785,0.840265 5.06915,1.566625 7.68547,2.001475 1.895565,0.28849 3.81489,0.29053 5.726745,0.33084 1.68956,0.01315 0.83752,0.02475 2.5561,-0.0367 0,0 -3.997775,2.92418 -3.997775,2.92418 v 0 C 90.5365,70.95809 91.401845,70.94484 89.68357,70.94929 87.75144,70.95559 85.81423,70.88998 83.907,70.551355 81.28714,70.054305 78.74371,69.25199 76.19592,68.4741 74.3965,67.896635 72.690565,67.13858 71.167235,65.997155 69.02049,64.54515 66.87436,63.09257 64.73801,61.625135 63.979015,61.105605 63.19339,60.623725 62.455675,60.0744 61.75461,59.552375 61.205875,58.837275 60.54392,58.270605 59.70546,57.438385 58.86012,56.61323 58.03132,55.77145 57.36474,55.121625 56.744085,54.43021 56.103095,53.755695 56.015845,53.6363 55.257855,52.65146 55.37945,52.56222 c 4.04535,-2.968997 2.731845,-3.169961 4.67995,-2.782188 0.605575,0.182313 1.186675,0.466283 1.72634,0.792713 0.567655,0.439535 1.06575,0.9562 1.621625,1.41016 0.74061,0.681945 1.57051,1.249795 2.37192,1.856385 1.11746,0.871705 2.24656,1.733745 3.3176,2.661155 1.03097,0.90639 1.98495,1.896015 2.920395,2.900065 1.52045,1.58072 2.939885,3.254665 4.378005,4.90978 1.09708,1.19228 2.090075,2.46646 3.09003,3.74064 1.03869,1.3708 2.16667,2.674405 3.12499,4.106625 1.273365,1.7127 2.604945,3.3804 3.819905,5.133595 0.823265,1.300585 1.729915,2.542815 2.598905,3.812765 0.889595,1.28761 1.7867,2.569565 2.744095,3.808145 0.825755,1.237185 1.63512,2.48553 2.50925,3.689585 0.70468,0.965125 1.348095,1.973625 1.8207,3.075115 0.40421,0.756995 0.81675,1.505815 1.24449,2.249335 0.43737,0.71695 0.89378,1.420575 1.34208,2.13037 0.48331,0.89893 0.890865,1.82307 1.11617,2.825165 0,0 -4.556,2.40342 -4.556,2.40342 z"
     inkscape:connector-curvature="0" />
  <g
     transform="matrix(0.41200842,0,0,0.41072789,45.950063,29.693369)"
     id="layer1">
    <rect
       id="rect2380"
       style="fill:#ffffff;stroke:#000000"
       height="16"
       width="32"
       y="0"
       x="0" />
    <rect
       id="rect3224"
       style="fill:#ffffff;stroke:#000000"
       height="16"
       width="32"
       y="0"
       x="32" />
    <rect
       id="rect3226"
       style="fill:#ffffff;stroke:#000000"
       height="16"
       width="32"
       y="0"
       x="64" />
    <rect
       id="rect3228"
       style="fill:#ffffff;stroke:#000000"
       height="16"
       width="32"
       y="0"
       x="96" />
    <rect
       id="rect3230"
       style="fill:#ffffff;stroke:#000000"
       height="16"
       width="32"
       y="0"
       x="128" />
    <rect
       id="rect3232"
       style="fill:#ffffff;stroke:#000000"
       height="16"
       width="32"
       y="0"
       x="160" />
    <rect
       id="rect3234"
       style="fill:#ffffff;stroke:#000000"
       height="16"
       width="32"
       y="0"
       x="192" />
    <rect
       id="rect3236"
       style="fill:#ffffff;stroke:#000000"
       height="16"
       width="32"
       y="0"
       x="224" />
    <rect
       id="rect3240"
       style="fill:#ffffff;stroke:#000000"
       height="16"
       width="32"
       y="16"
       x="-16" />
    <rect
       id="rect3242"
       style="fill:#ffffff;stroke:#000000"
       height="16"
       width="32"
       y="16"
       x="16" />
    <rect
       id="rect3244"
       style="fill:#ffffff;stroke:#000000"
       height="16"
       width="32"
       y="16"
       x="48" />
    <rect
       id="rect3246"
       style="fill:#ffffff;stroke:#000000"
       height="16"
       width="32"
       y="16"
       x="80" />
    <rect
       id="rect3248"
       style="fill:#ffffff;stroke:#000000"
       height="16"
       width="32"
       y="16"
       x="112" />
    <rect
       id="rect3250"
       style="fill:#ffffff;stroke:#000000"
       height="16"
       width="32"
       y="16"
       x="144" />
    <rect
       id="rect3252"
       style="fill:#ffffff;stroke:#000000"
       height="16"
       width="32"
       y="16"
       x="176" />
    <rect
       id="rect3254"
       style="fill:#ffffff;stroke:#000000"
       height="16"
       width="32"
       y="16"
       x="208" />
    <rect
       id="rect3256"
       style="fill:#ffffff;stroke:#000000"
       height="16"
       width="32"
       y="16"
       x="240" />
    <rect
       id="rect3258"
       style="fill:#ffffff;stroke:#000000"
       height="16"
       width="32"
       y="32"
       x="-2.6702999e-005" />
    <rect
       id="rect3260"
       style="fill:#ffffff;stroke:#000000"
       height="16"
       width="32"
       y="32"
       x="32" />
    <rect
       id="rect3262"
       style="fill:#ffffff;stroke:#000000"
       height="16"
       width="32"
       y="32"
       x="64" />
    <rect
       id="rect3264"
       style="fill:#ffffff;stroke:#000000"
       height="16"
       width="32"
       y="32"
       x="96" />
    <rect
       id="rect3266"
       style="fill:#ffffff;stroke:#000000"
       height="16"
       width="32"
       y="32"
       x="128" />
    <rect
       id="rect3268"
       style="fill:#ffffff;stroke:#000000"
       height="16"
       width="32"
       y="32"
       x="160" />
    <rect
       id="rect3270"
       style="fill:#ffffff;stroke:#000000"
       height="16"
       width="32"
       y="32"
       x="192" />
    <rect
       id="rect3272"
       style="fill:#ffffff;stroke:#000000"
       height="16"
       width="32"
       y="32"
       x="224" />
    <rect
       id="rect3276"
       style="fill:#ffffff;stroke:#000000"
       height="16"
       width="32"
       y="48"
       x="-16" />
    <rect
       id="rect3278"
       style="fill:#ffffff;stroke:#000000"
       height="16"
       width="32"
       y="48"
       x="16" />
    <rect
       id="rect3280"
       style="fill:#ffffff;stroke:#000000"
       height="16"
       width="32"
       y="48"
       x="48" />
    <rect
       id="rect3282"
       style="fill:#ffffff;stroke:#000000"
       height="16"
       width="32"
       y="48"
       x="80" />
    <rect
       id="rect3284"
       style="fill:#ffffff;stroke:#000000"
       height="16"
       width="32"
       y="48"
       x="112" />
    <rect
       id="rect3286"
       style="fill:#ffffff;stroke:#000000"
       height="16"
       width="32"
       y="48"
       x="144" />
    <rect
       id="rect3288"
       style="fill:#ffffff;stroke:#000000"
       height="16"
       width="32"
       y="48"
       x="176" />
    <rect
       id="rect3290"
       style="fill:#ffffff;stroke:#000000"
       height="16"
       width="32"
       y="48"
       x="208" />
    <rect
       id="rect3292"
       style="fill:#ffffff;stroke:#000000"
       height="16"
       width="32"
       y="48"
       x="240" />
    <rect
       id="rect3294"
       style="fill:#ffffff;stroke:#000000"
       height="16"
       width="32"
       y="64"
       x="1.1444e-005" />
    <rect
       id="rect3296"
       style="fill:#ffffff;stroke:#000000"
       height="16"
       width="32"
       y="64"
       x="32" />
    <rect
       id="rect3298"
       style="fill:#ffffff;stroke:#000000"
       height="16"
       width="32"
       y="64"
       x="64" />
    <rect
       id="rect3300"
       style="fill:#ffffff;stroke:#000000"
       height="16"
       width="32"
       y="64"
       x="96" />
    <rect
       id="rect3302"
       style="fill:#ffffff;stroke:#000000"
       height="16"
       width="32"
       y="64"
       x="128" />
    <rect
       id="rect3304"
       style="fill:#ffffff;stroke:#000000"
       height="16"
       width="32"
       y="64"
       x="160" />
    <rect
       id="rect3306"
       style="fill:#ffffff;stroke:#000000"
       height="16"
       width="32"
       y="64"
       x="192" />
    <rect
       id="rect3308"
       style="fill:#ffffff;stroke:#000000"
       height="16"
       width="32"
       y="64"
       x="224" />
    <rect
       id="rect3310"
       style="fill:#ffffff;stroke:#000000"
       height="16"
       width="32"
       y="80"
       x="-16" />
    <rect
       id="rect3312"
       style="fill:#ffffff;stroke:#000000"
       height="16"
       width="32"
       y="80"
       x="16" />
    <rect
       id="rect3314"
       style="fill:#ffffff;stroke:#000000"
       height="16"
       width="32"
       y="80"
       x="48" />
    <rect
       id="rect3316"
       style="fill:#ffffff;stroke:#000000"
       height="16"
       width="32"
       y="80"
       x="80" />
    <rect
       id="rect3318"
       style="fill:#ffffff;stroke:#000000"
       height="16"
       width="32"
       y="80"
       x="112" />
    <rect
       id="rect3320"
       style="fill:#ffffff;stroke:#000000"
       height="16"
       width="32"
       y="80"
       x="144" />
    <rect
       id="rect3322"
       style="fill:#ffffff;stroke:#000000"
       height="16"
       width="32"
       y="80"
       x="176" />
    <rect
       id="rect3324"
       style="fill:#ffffff;stroke:#000000"
       height="16"
       width="32"
       y="80"
       x="208" />
    <rect
       id="rect3326"
       style="fill:#ffffff;stroke:#000000"
       height="16"
       width="32"
       y="80"
       x="240" />
    <rect
       id="rect3328"
       style="fill:#ffffff;stroke:#000000"
       height="16"
       width="32"
       y="96"
       x="-1.9073001e-005" />
    <rect
       id="rect3330"
       style="fill:#ffffff;stroke:#000000"
       height="16"
       width="32"
       y="96"
       x="32" />
    <rect
       id="rect3332"
       style="fill:#ffffff;stroke:#000000"
       height="16"
       width="32"
       y="96"
       x="64" />
    <rect
       id="rect3334"
       style="fill:#ffffff;stroke:#000000"
       height="16"
       width="32"
       y="96"
       x="96" />
    <rect
       id="rect3336"
       style="fill:#ffffff;stroke:#000000"
       height="16"
       width="32"
       y="96"
       x="128" />
    <rect
       id="rect3338"
       style="fill:#ffffff;stroke:#000000"
       height="16"
       width="32"
       y="96"
       x="160" />
    <rect
       id="rect3340"
       style="fill:#ffffff;stroke:#000000"
       height="16"
       width="32"
       y="96"
       x="192" />
    <rect
       id="rect3342"
       style="fill:#ffffff;stroke:#000000"
       height="16"
       width="32"
       y="96"
       x="224" />
    <rect
       id="rect3344"
       style="fill:#ffffff;stroke:#000000"
       height="16"
       width="32"
       y="112"
       x="-16" />
    <rect
       id="rect3346"
       style="fill:#ffffff;stroke:#000000"
       height="16"
       width="32"
       y="112"
       x="16" />
    <rect
       id="rect3348"
       style="fill:#ffffff;stroke:#000000"
       height="16"
       width="32"
       y="112"
       x="48" />
    <rect
       id="rect3350"
       style="fill:#ffffff;stroke:#000000"
       height="16"
       width="32"
       y="112"
       x="80" />
    <rect
       id="rect3352"
       style="fill:#ffffff;stroke:#000000"
       height="16"
       width="32"
       y="112"
       x="112" />
    <rect
       id="rect3354"
       style="fill:#ffffff;stroke:#000000"
       height="16"
       width="32"
       y="112"
       x="144" />
    <rect
       id="rect3356"
       style="fill:#ffffff;stroke:#000000"
       height="16"
       width="32"
       y="112"
       x="176" />
    <rect
       id="rect3358"
       style="fill:#ffffff;stroke:#000000"
       height="16"
       width="32"
       y="112"
       x="208" />
    <rect
       id="rect3360"
       style="fill:#ffffff;stroke:#000000"
       height="16"
       width="32"
       y="112"
       x="240" />
    <rect
       id="rect3362"
       style="fill:#ffffff;stroke:#000000"
       height="16"
       width="32"
       y="128"
       x="7.6294e-006" />
    <rect
       id="rect3364"
       style="fill:#ffffff;stroke:#000000"
       height="16"
       width="32"
       y="128"
       x="32" />
    <rect
       id="rect3366"
       style="fill:#ffffff;stroke:#000000"
       height="16"
       width="32"
       y="128"
       x="64" />
    <rect
       id="rect3368"
       style="fill:#ffffff;stroke:#000000"
       height="16"
       width="32"
       y="128"
       x="96" />
    <rect
       id="rect3370"
       style="fill:#ffffff;stroke:#000000"
       height="16"
       width="32"
       y="128"
       x="128" />
    <rect
       id="rect3372"
       style="fill:#ffffff;stroke:#000000"
       height="16"
       width="32"
       y="128"
       x="160" />
    <rect
       id="rect3374"
       style="fill:#ffffff;stroke:#000000"
       height="16"
       width="32"
       y="128"
       x="192" />
    <rect
       id="rect3376"
       style="fill:#ffffff;stroke:#000000"
       height="16"
       width="32"
       y="128"
       x="224" />
    <rect
       id="rect3378"
       style="fill:#ffffff;stroke:#000000"
       height="16"
       width="32"
       y="144"
       x="-16" />
    <rect
       id="rect3380"
       style="fill:#ffffff;stroke:#000000"
       height="16"
       width="32"
       y="144"
       x="16" />
    <rect
       id="rect3382"
       style="fill:#ffffff;stroke:#000000"
       height="16"
       width="32"
       y="144"
       x="48" />
    <rect
       id="rect3384"
       style="fill:#ffffff;stroke:#000000"
       height="16"
       width="32"
       y="144"
       x="80" />
    <rect
       id="rect3386"
       style="fill:#ffffff;stroke:#000000"
       height="16"
       width="32"
       y="144"
       x="112" />
    <rect
       id="rect3388"
       style="fill:#ffffff;stroke:#000000"
       height="16"
       width="32"
       y="144"
       x="144" />
    <rect
       id="rect3390"
       style="fill:#ffffff;stroke:#000000"
       height="16"
       width="32"
       y="144"
       x="176" />
    <rect
       id="rect3392"
       style="fill:#ffffff;stroke:#000000"
       height="16"
       width="32"
       y="144"
       x="208" />
    <rect
       id="rect3394"
       style="fill:#ffffff;stroke:#000000"
       height="16"
       width="32"
       y="144"
       x="240" />
    <rect
       id="rect3396"
       style="fill:#ffffff;stroke:#000000"
       height="16"
       width="32"
       y="160"
       x="-1.9073001e-005" />
    <rect
       id="rect3398"
       style="fill:#ffffff;stroke:#000000"
       height="16"
       width="32"
       y="160"
       x="32" />
    <rect
       id="rect3400"
       style="fill:#ffffff;stroke:#000000"
       height="16"
       width="32"
       y="160"
       x="64" />
    <rect
       id="rect3402"
       style="fill:#ffffff;stroke:#000000"
       height="16"
       width="32"
       y="160"
       x="96" />
    <rect
       id="rect3404"
       style="fill:#ffffff;stroke:#000000"
       height="16"
       width="32"
       y="160"
       x="128" />
    <rect
       id="rect3406"
       style="fill:#ffffff;stroke:#000000"
       height="16"
       width="32"
       y="160"
       x="160" />
    <rect
       id="rect3408"
       style="fill:#ffffff;stroke:#000000"
       height="16"
       width="32"
       y="160"
       x="192" />
    <rect
       id="rect3410"
       style="fill:#ffffff;stroke:#000000"
       height="16"
       width="32"
       y="160"
       x="224" />
    <rect
       id="rect3412"
       style="fill:#ffffff;stroke:#000000"
       height="16"
       width="32"
       y="176"
       x="-16" />
    <rect
       id="rect3414"
       style="fill:#ffffff;stroke:#000000"
       height="16"
       width="32"
       y="176"
       x="16" />
    <rect
       id="rect3416"
       style="fill:#ffffff;stroke:#000000"
       height="16"
       width="32"
       y="176"
       x="48" />
    <rect
       id="rect3418"
       style="fill:#ffffff;stroke:#000000"
       height="16"
       width="32"
       y="176"
       x="80" />
    <rect
       id="rect3420"
       style="fill:#ffffff;stroke:#000000"
       height="16"
       width="32"
       y="176"
       x="112" />
    <rect
       id="rect3422"
       style="fill:#ffffff;stroke:#000000"
       height="16"
       width="32"
       y="176"
       x="144" />
    <rect
       id="rect3424"
       style="fill:#ffffff;stroke:#000000"
       height="16"
       width="32"
       y="176"
       x="176" />
    <rect
       id="rect3426"
       style="fill:#ffffff;stroke:#000000"
       height="16"
       width="32"
       y="176"
       x="208" />
    <rect
       id="rect3428"
       style="fill:#ffffff;stroke:#000000"
       height="16"
       width="32"
       y="176"
       x="240" />
    <rect
       id="rect3430"
       style="fill:#ffffff;stroke:#000000"
       height="16"
       width="32"
       y="192"
       x="1.9073001e-005" />
    <rect
       id="rect3432"
       style="fill:#ffffff;stroke:#000000"
       height="16"
       width="32"
       y="192"
       x="32" />
    <rect
       id="rect3434"
       style="fill:#ffffff;stroke:#000000"
       height="16"
       width="32"
       y="192"
       x="64" />
    <rect
       id="rect3436"
       style="fill:#ffffff;stroke:#000000"
       height="16"
       width="32"
       y="192"
       x="96" />
    <rect
       id="rect3438"
       style="fill:#ffffff;stroke:#000000"
       height="16"
       width="32"
       y="192"
       x="128" />
    <rect
       id="rect3440"
       style="fill:#ffffff;stroke:#000000"
       height="16"
       width="32"
       y="192"
       x="160" />
    <rect
       id="rect3442"
       style="fill:#ffffff;stroke:#000000"
       height="16"
       width="32"
       y="192"
       x="192" />
    <rect
       id="rect3444"
       style="fill:#ffffff;stroke:#000000"
       height="16"
       width="32"
       y="192"
       x="224" />
    <rect
       id="rect3446"
       style="fill:#ffffff;stroke:#000000"
       height="16"
       width="32"
       y="208"
       x="-16" />
    <rect
       id="rect3448"
       style="fill:#ffffff;stroke:#000000"
       height="16"
       width="32"
       y="208"
       x="16" />
    <rect
       id="rect3450"
       style="fill:#ffffff;stroke:#000000"
       height="16"
       width="32"
       y="208"
       x="48" />
    <rect
       id="rect3452"
       style="fill:#ffffff;stroke:#000000"
       height="16"
       width="32"
       y="208"
       x="80" />
    <rect
       id="rect3454"
       style="fill:#ffffff;stroke:#000000"
       height="16"
       width="32"
       y="208"
       x="112" />
    <rect
       id="rect3456"
       style="fill:#ffffff;stroke:#000000"
       height="16"
       width="32"
       y="208"
       x="144" />
    <rect
       id="rect3458"
       style="fill:#ffffff;stroke:#000000"
       height="16"
       width="32"
       y="208"
       x="176" />
    <rect
       id="rect3460"
       style="fill:#ffffff;stroke:#000000"
       height="16"
       width="32"
       y="208"
       x="208" />
    <rect
       id="rect3462"
       style="fill:#ffffff;stroke:#000000"
       height="16"
       width="32"
       y="208"
       x="240" />
    <rect
       id="rect3464"
       style="fill:#ffffff;stroke:#000000"
       height="16"
       width="32"
       y="224"
       x="-1.1444e-005" />
    <rect
       id="rect3466"
       style="fill:#ffffff;stroke:#000000"
       height="16"
       width="32"
       y="224"
       x="32" />
    <rect
       id="rect3468"
       style="fill:#ffffff;stroke:#000000"
       height="16"
       width="32"
       y="224"
       x="64" />
    <rect
       id="rect3470"
       style="fill:#ffffff;stroke:#000000"
       height="16"
       width="32"
       y="224"
       x="96" />
    <rect
       id="rect3472"
       style="fill:#ffffff;stroke:#000000"
       height="16"
       width="32"
       y="224"
       x="128" />
    <rect
       id="rect3474"
       style="fill:#ffffff;stroke:#000000"
       height="16"
       width="32"
       y="224"
       x="160" />
    <rect
       id="rect3476"
       style="fill:#ffffff;stroke:#000000"
       height="16"
       width="32"
       y="224"
       x="192" />
    <rect
       id="rect3478"
       style="fill:#ffffff;stroke:#000000"
       height="16"
       width="32"
       y="224"
       x="224" />
    <rect
       id="rect3480"
       style="fill:#ffffff;stroke:#000000"
       height="16"
       width="32"
       y="240"
       x="-16" />
    <rect
       id="rect3482"
       style="fill:#ffffff;stroke:#000000"
       height="16"
       width="32"
       y="240"
       x="16" />
    <rect
       id="rect3484"
       style="fill:#ffffff;stroke:#000000"
       height="16"
       width="32"
       y="240"
       x="48" />
    <rect
       id="rect3486"
       style="fill:#ffffff;stroke:#000000"
       height="16"
       width="32"
       y="240"
       x="80" />
    <rect
       id="rect3488"
       style="fill:#ffffff;stroke:#000000"
       height="16"
       width="32"
       y="240"
       x="112" />
    <rect
       id="rect3490"
       style="fill:#ffffff;stroke:#000000"
       height="16"
       width="32"
       y="240"
       x="144" />
    <rect
       id="rect3492"
       style="fill:#ffffff;stroke:#000000"
       height="16"
       width="32"
       y="240"
       x="176" />
    <rect
       id="rect3494"
       style="fill:#ffffff;stroke:#000000"
       height="16"
       width="32"
       y="240"
       x="208" />
    <rect
       id="rect3496"
       style="fill:#ffffff;stroke:#000000"
       height="16"
       width="32"
       y="240"
       x="240" />
  </g>
</svg>
