<?xml version="1.0" encoding="UTF-8" standalone="no"?>
<svg
   xmlns:dc="http://purl.org/dc/elements/1.1/"
   xmlns:cc="http://creativecommons.org/ns#"
   xmlns:rdf="http://www.w3.org/1999/02/22-rdf-syntax-ns#"
   xmlns:svg="http://www.w3.org/2000/svg"
   xmlns="http://www.w3.org/2000/svg"
   xmlns:sodipodi="http://sodipodi.sourceforge.net/DTD/sodipodi-0.dtd"
   xmlns:inkscape="http://www.inkscape.org/namespaces/inkscape"
   width="389.7735"
   height="337.55374"
   viewBox="0 0 194.88675 168.77687"
   version="1.1"
   id="svg12"
   sodipodi:docname="hexMyTank0.svg"
   inkscape:version="0.92.1 r15371">
  <metadata
     id="metadata18">
    <rdf:RDF>
      <cc:Work
         rdf:about="">
        <dc:format>image/svg+xml</dc:format>
        <dc:type
           rdf:resource="http://purl.org/dc/dcmitype/StillImage" />
        <dc:title></dc:title>
      </cc:Work>
    </rdf:RDF>
  </metadata>
  <defs
     id="defs16" />
  <sodipodi:namedview
     pagecolor="#ffffff"
     bordercolor="#666666"
     borderopacity="1"
     objecttolerance="10"
     gridtolerance="10"
     guidetolerance="10"
     inkscape:pageopacity="0"
     inkscape:pageshadow="2"
     inkscape:window-width="1366"
     inkscape:window-height="745"
     id="namedview14"
     showgrid="false"
     inkscape:zoom="1.44"
     inkscape:cx="58.081194"
     inkscape:cy="168.77688"
     inkscape:window-x="1432"
     inkscape:window-y="-8"
     inkscape:window-maximized="1"
     inkscape:current-layer="svg12" />
  <polygon
     style="fill:none;stroke:#000000;stroke-width:2.5px"
     points="4,100 52,16.861561 148,16.861561 196,100 148,183.13844 52,183.13844 "
     id="polygon10"
     transform="translate(-2.5566243,-15.611561)" />
  <path
     style="fill:none;stroke-width:0.69444442"
     d="M 99.62059,330.54769 C 99.074646,329.68832 77.828715,292.93742 52.407408,248.87903 L 6.186853,168.77287 53.456016,86.899861 100.72518,5.0268615 l 94.19884,0.00934 94.19884,0.00934 47.09451,81.6139765 c 25.90197,44.887692 46.99572,82.023792 46.875,82.524672 -0.12073,0.50088 -21.27081,37.36413 -47.00016,81.91834 l -46.78066,81.00765 h -94.34917 -94.34916 z"
     id="path3695"
     inkscape:connector-curvature="0"
     transform="scale(0.5)" />
  <path
     style="fill:none;stroke-width:0.69444442"
     d="M 99.62059,330.54769 C 99.074646,329.68832 77.828715,292.93742 52.407408,248.87903 L 6.186853,168.77287 53.456016,86.899861 100.72518,5.0268615 l 94.19884,0.00934 94.19884,0.00934 47.09451,81.6139765 c 25.90197,44.887692 46.99572,82.023792 46.875,82.524672 -0.12073,0.50088 -21.27081,37.36413 -47.00016,81.91834 l -46.78066,81.00765 h -94.34917 -94.34916 z"
     id="path3697"
     inkscape:connector-curvature="0"
     transform="scale(0.5)" />
  <path
     style="fill:none;stroke-width:0.69444442"
     d="M 99.62059,330.54769 C 99.074646,329.68832 77.828715,292.93742 52.407408,248.87903 L 6.186853,168.77287 53.456016,86.899861 100.72518,5.0268615 l 94.19884,0.00934 94.19884,0.00934 47.09451,81.6139765 c 25.90197,44.887692 46.99572,82.023792 46.875,82.524672 -0.12073,0.50088 -21.27081,37.36413 -47.00016,81.91834 l -46.78066,81.00765 h -94.34917 -94.34916 z"
     id="path3699"
     inkscape:connector-curvature="0"
     transform="scale(0.5)" />
  <path
     style="fill:none;stroke-width:0.69444442"
     d="M 99.62059,330.54769 C 99.074646,329.68832 77.828715,292.93742 52.407408,248.87903 L 6.186853,168.77287 53.456016,86.899861 100.72518,5.0268615 l 94.19884,0.00934 94.19884,0.00934 47.09451,81.6139765 c 25.90197,44.887692 46.99572,82.023792 46.875,82.524672 -0.12073,0.50088 -21.27081,37.36413 -47.00016,81.91834 l -46.78066,81.00765 h -94.34917 -94.34916 z"
     id="path3701"
     inkscape:connector-curvature="0"
     transform="scale(0.5)" />
  <path
     style="fill:none;stroke-width:0.69444442"
     d="M 99.62059,330.54769 C 99.074646,329.68832 77.828715,292.93742 52.407408,248.87903 L 6.186853,168.77287 53.456016,86.899861 100.72518,5.0268615 l 94.19884,0.00934 94.19884,0.00934 47.09451,81.6139765 c 25.90197,44.887692 46.99572,82.023792 46.875,82.524672 -0.12073,0.50088 -21.27081,37.36413 -47.00016,81.91834 l -46.78066,81.00765 h -94.34917 -94.34916 z"
     id="path3703"
     inkscape:connector-curvature="0"
     transform="scale(0.5)" />
  <path
     style="fill:none;stroke-width:0.69444442"
     d="M 99.62059,330.54769 C 99.074646,329.68832 77.828715,292.93742 52.407408,248.87903 L 6.186853,168.77287 53.456016,86.899861 100.72518,5.0268615 l 94.19884,0.00934 94.19884,0.00934 47.09451,81.6139765 c 25.90197,44.887692 46.99572,82.023792 46.875,82.524672 -0.12073,0.50088 -21.27081,37.36413 -47.00016,81.91834 l -46.78066,81.00765 h -94.34917 -94.34916 z"
     id="path3705"
     inkscape:connector-curvature="0"
     transform="scale(0.5)" />
  <path
     style="fill:none;stroke-width:0.69444442"
     d="M 99.62059,330.54769 C 99.074646,329.68832 77.828715,292.93742 52.407408,248.87903 L 6.186853,168.77287 53.456016,86.899861 100.72518,5.0268615 l 94.19884,0.00934 94.19884,0.00934 47.09451,81.6139765 c 25.90197,44.887692 46.99572,82.023792 46.875,82.524672 -0.12073,0.50088 -21.27081,37.36413 -47.00016,81.91834 l -46.78066,81.00765 h -94.34917 -94.34916 z"
     id="path3707"
     inkscape:connector-curvature="0"
     transform="scale(0.5)" />
  <path
     style="fill:none;stroke-width:0.69444442"
     d="M 99.62059,330.54769 C 99.074646,329.68832 77.828715,292.93742 52.407408,248.87903 L 6.186853,168.77287 53.456016,86.899861 100.72518,5.0268615 l 94.19884,0.00934 94.19884,0.00934 47.09451,81.6139765 c 25.90197,44.887692 46.99572,82.023792 46.875,82.524672 -0.12073,0.50088 -21.27081,37.36413 -47.00016,81.91834 l -46.78066,81.00765 h -94.34917 -94.34916 z"
     id="path3709"
     inkscape:connector-curvature="0"
     transform="scale(0.5)" />
  <path
     style="fill:none;stroke-width:0.5"
     id="path3711"
     d="m 65.509258,89.024217 c 0.825691,0.513202 1.674013,0.988894 2.518515,1.470174 0.566729,0.260817 1.152628,0.482219 1.764746,0.60491 0.639845,0.115826 1.23124,0.382489 1.805407,0.677334 0.911481,0.379418 1.86686,0.632274 2.787934,0.990256 0.988403,0.442126 2.031983,0.734502 3.0782,1.002662 1.18351,0.33492 2.38658,0.560682 3.604662,0.720961 1.182291,0.103543 2.368903,0.05533 3.553602,0.0777 1.255899,0.0905 2.508498,0.09197 3.764194,0.02117 0.936588,-0.126147 1.878716,-0.137851 2.820231,-0.186362 0.865901,-0.108795 1.703136,-0.325588 2.544622,-0.546785 0.752335,-0.184402 1.453643,-0.500254 2.172903,-0.773999 0.621049,-0.315298 1.291984,-0.495792 1.889643,-0.856238 0.723783,-0.354838 1.284308,-0.939096 1.920992,-1.414235 0.593191,-0.466828 1.042131,-1.070288 1.456161,-1.693591 0.37677,-0.590987 0.72193,-1.201317 1.07041,-1.809194 0.41267,-0.717763 0.8301,-1.432772 1.24277,-2.150543 0.3917,-0.683453 0.78384,-1.36666 1.17668,-2.049471 0.41453,-0.57946 0.62676,-1.234085 0.8707,-1.892683 0.20913,-1.052304 0.47438,-2.09219 0.78499,-3.118933 0.35078,-0.88084 0.25669,-1.801276 0.35163,-2.715979 -0.18013,-4.364235 0.19452,17.056 -0.001,-1.116346 -0.017,-1.575659 0.0483,6.301885 -0.0107,4.727242 -0.0292,-0.779145 -0.007,-12.528827 -0.0225,-0.824335 -0.009,-1.037534 -0.17584,-2.054664 -0.40577,-3.062849 -0.28753,-1.201416 -0.57205,-2.396415 -0.97961,-3.563271 -0.59585,-1.715072 -1.32736,-3.378206 -2.2059,-4.966609 -0.61289,-0.99216 -1.14775,-2.027604 -1.70523,-3.050436 -0.50692,-0.89293 -1.0335,-1.774419 -1.549228,-2.662192 -0.335915,-0.878308 -0.843528,-1.570697 -1.523596,-2.213085 -0.852176,-0.750437 -1.807101,-1.368679 -2.774318,-1.95799 -0.772544,-0.440255 -1.513844,-0.941915 -2.350976,-1.25145 -0.504929,-0.110268 -1.016496,-0.125168 -1.530762,-0.110472 -0.646765,-0.04574 -1.28024,0.10173 -1.92341,0.142993 -0.856274,0.05089 -1.710114,0.178104 -2.549444,0.352527 -0.735844,0.11145 -1.443625,0.348821 -2.171461,0.49771 -0.568864,0.198653 -1.144785,0.386406 -1.701465,0.618744 -0.696853,0.340375 -1.438578,0.56465 -2.126163,0.927373 -0.922724,0.470295 -1.841022,0.945814 -2.740912,1.458888 -0.857574,0.531882 -1.773925,0.955598 -2.660863,1.433241 -0.778538,0.439151 -1.48189,0.976363 -2.144351,1.573429 -0.09891,0.100696 -0.197855,0.201354 -0.296723,0.302085 -0.03864,0.03937 -0.320306,0.337568 -0.406432,0.392967 -1.670171,1.074281 -1.296799,-4.065527 -0.113493,-5.432319 0.29298,-0.205964 0.152344,-0.100128 0.422558,-0.316609 0,0 0.348634,5.146561 0.348634,5.146561 v 0 c -0.258747,0.208078 -0.137671,0.102993 -0.364777,0.313467 -1.526202,1.368683 -1.7247,-3.834414 -0.664721,-4.865827 0.123508,-0.120183 0.257199,-0.229486 0.383325,-0.346927 0.107979,-0.100546 0.215995,-0.201054 0.323995,-0.301582 0.703176,-0.597063 1.443057,-1.137578 2.262987,-1.566982 0.891242,-0.465678 1.789569,-0.919529 2.65233,-1.437088 0.921332,-0.491376 1.840532,-0.986154 2.760019,-1.479923 0.71306,-0.340556 1.461473,-0.593485 2.170319,-0.942721 0.590931,-0.223463 1.179145,-0.46399 1.790986,-0.622669 0.726667,-0.151435 1.43989,-0.366542 2.176705,-0.466484 0.865349,-0.161619 1.734196,-0.326956 2.614288,-0.380019 0.6474,-0.04613 1.287348,-0.192773 1.939505,-0.154242 0.581579,-0.02487 1.157473,0.0078 1.729315,0.124878 0.877524,0.316655 1.64876,0.829305 2.447906,1.304873 0.99636,0.598573 1.989118,1.205806 2.87,1.971085 0.728173,0.626536 1.427763,1.231974 1.706093,2.188625 0.44273,0.929262 1.05014,1.777792 1.52542,2.691623 0.61783,1.001997 1.07909,2.092656 1.70563,3.09117 0.92103,1.578275 1.64109,3.266389 2.28477,4.974736 0.46418,1.14575 0.7673,2.315656 1.04959,3.517741 0.25287,1.009304 0.47619,2.021922 0.51024,3.066241 0.007,1.837706 0.0173,3.675414 0.0221,5.513123 0.004,1.570193 -0.0718,-6.27989 -0.02,-4.710548 0.0597,1.808429 -0.0509,3.621126 0.0437,5.428066 0.0818,1.563425 0.009,-6.262187 -0.005,-4.69669 -0.0163,1.817792 0.007,3.635745 -0.001,5.45359 -5.3e-4,0.122406 -0.0161,0.244285 -0.0242,0.366431 -0.0426,0.916799 -0.15784,1.807433 -0.46481,2.68095 -0.29845,1.053052 -0.49516,2.13066 -0.81474,3.176254 -0.25102,0.669319 -0.574,1.295243 -0.95608,1.900284 -0.39243,0.677715 -0.78573,1.354925 -1.17773,2.03289 -0.41645,0.72168 -0.82696,1.44674 -1.24067,2.169996 -0.35521,0.613257 -0.7089,1.228859 -1.11495,1.810432 -0.46396,0.634766 -0.97858,1.229145 -1.61263,1.702048 -0.639102,0.509991 -1.260695,1.049252 -1.996039,1.421536 -0.634836,0.330738 -1.311376,0.567579 -1.961147,0.867315 -0.731453,0.289124 -1.466009,0.553414 -2.231858,0.740892 -0.876675,0.230106 -1.745198,0.492273 -2.655123,0.557459 -0.945106,0.02828 -1.880326,0.0797 -2.820098,0.189452 -1.263593,0.0316 -2.524011,-0.0089 -3.786328,-0.07792 -1.206387,0.01688 -2.415925,0.06336 -3.619945,-0.0397 C 79.763723,99.42593 78.545785,99.18073 77.344619,98.835241 76.271427,98.592764 75.189406,98.352978 74.192858,97.870621 73.264193,97.492205 72.303408,97.226904 71.355407,96.907409 70.823315,96.636059 70.284058,96.36518 69.69196,96.252344 69.021498,96.120649 68.384412,95.887263 67.760155,95.607919 66.925183,95.119613 66.093298,94.62489 65.24,94.169016 c 0,0 0.269617,-5.144591 0.269617,-5.144591 z"
     inkscape:connector-curvature="0" />
  <path
     style="fill:none;stroke-width:0.5"
     id="path3713"
     d="m 118.39253,89.201431 c -0.89944,-0.379746 -1.85788,-0.456194 -2.82022,-0.472258 -0.83069,0.03885 -1.65996,0.08622 -2.49168,0.105911 -0.86972,0.0038 -1.73538,-0.02172 -2.60416,-0.06659 -1.16536,-0.128457 -2.33265,-0.124007 -3.49686,0.004 -1.4883,0.142967 -2.981,0.218197 -4.47305,0.309105 -1.54723,0.220372 -3.104225,0.34608 -4.661528,0.4685 -1.539401,0.135099 -3.076794,0.286692 -4.621285,0.348399 -2.111551,0.152974 -4.215752,0.387118 -6.314202,0.667929 -1.721681,0.134759 -3.408586,0.526725 -5.118542,0.735475 -1.587436,0.223869 -3.169314,0.470243 -4.749332,0.740514 -2.153915,0.36412 -4.299443,0.802514 -6.413911,1.352621 -1.318889,0.344292 -2.645349,0.684149 -3.921667,1.164096 -1.341774,0.41879 -2.648622,0.949168 -3.935179,1.515839 -0.940347,0.41402 -1.85827,0.879529 -2.843043,1.179646 -0.646269,0.27538 -1.337367,0.410348 -1.973728,0.709097 -0.426544,0.355686 -1.031128,0.593396 -1.298188,1.099957 1.278556,1.406593 0.137863,0.225994 0.08614,-4.852819 -1.98e-4,-0.01686 -8.52e-4,0.04368 0.01539,0.04815 0.06077,0.01661 0.12591,0.01098 0.188813,0.0077 0.221051,-0.01161 0.440327,-0.046 0.660808,-0.06565 0.871528,-0.217501 1.753489,-0.386213 2.619883,-0.630511 1.147673,-0.279089 2.285948,-0.596877 3.426301,-0.904938 1.715741,-0.39456 3.320728,-1.07419 4.924026,-1.786023 2.364727,-1.081737 4.659646,-2.305063 6.984393,-3.467213 1.69238,-0.749989 3.124776,-1.895171 4.533068,-3.069934 1.984583,-1.756869 3.891312,-3.6067 5.576063,-5.655075 1.197622,-1.497362 2.159051,-3.158526 3.149888,-4.794086 0.856169,-1.456627 0.440194,-0.712939 1.246267,-2.231998 0,0 0.533527,4.924265 0.533527,4.924265 v 0 c -0.828631,1.534331 -0.407433,0.778295 -1.262717,2.26859 -0.960609,1.676423 -1.986034,3.321292 -3.232907,4.803689 -1.740388,2.02034 -3.706928,3.821857 -5.654496,5.639363 -1.399809,1.269611 -2.909271,2.367967 -4.659439,3.116497 -2.330846,1.133133 -4.661882,2.265446 -7.000893,3.381862 -0.829424,0.397544 -1.639557,0.836975 -2.484144,1.201193 -0.802619,0.346127 -1.696281,0.463796 -2.518009,0.75373 -1.139954,0.310018 -2.277229,0.629527 -3.420632,0.926398 -0.896055,0.252363 -1.805166,0.444159 -2.709808,0.662015 -0.147024,0.01586 -1.378915,0.179882 -1.395402,0.02996 -0.548552,-4.987874 -1.379344,-3.950827 -0.06947,-5.444049 0.460675,-0.433287 0.99715,-0.79455 1.549679,-1.098698 0.664476,-0.271836 1.360969,-0.444867 2.032047,-0.699289 0.960887,-0.300414 1.867609,-0.735204 2.793637,-1.12595 1.313648,-0.531896 2.624747,-1.078706 3.963428,-1.542549 1.300441,-0.439651 2.634472,-0.771009 3.971727,-1.079103 2.129169,-0.526389 4.288565,-0.918683 6.440997,-1.336574 1.581085,-0.353959 3.181054,-0.576828 4.784504,-0.805724 1.706493,-0.214132 3.399438,-0.539189 5.118937,-0.653009 2.119924,-0.246416 4.229984,-0.565748 6.355776,-0.741337 1.537972,-0.06268 3.0671,-0.226743 4.601404,-0.344335 1.5599,-0.126607 3.118659,-0.262545 4.669999,-0.472384 1.48431,-0.09653 2.97009,-0.17329 4.4499,-0.328281 1.18816,-0.127709 2.38325,-0.180672 3.57348,-0.03921 0.85768,0.02844 1.71244,0.04558 2.57022,0.04691 0.83958,-0.0203 1.67715,-0.06375 2.516,-0.09709 1.02015,0.03091 2.02425,0.140023 3.00475,0.445951 0,0 -0.19658,5.147322 -0.19658,5.147322 z"
     inkscape:connector-curvature="0" />
  <path
     style="fill:none;stroke:#000000;stroke-width:0.5px;stroke-linecap:butt;stroke-linejoin:miter;stroke-opacity:1"
     d="m 42.496029,56.336076 9.582663,-14.514329 3.909142,2.256945 -2.430555,4.209845 27.283423,14.54928 L 100.33167,28.384033 167.05374,64.90135 122.18149,141.23346 59.508124,104.64804 75.573385,75.433298 47.908687,59.461076 45.558704,64.920254 39.665621,62.442719 Z"
     id="path31"
     inkscape:connector-curvature="0"
     sodipodi:nodetypes="cccccccccccccc" />
  <path
     style="fill:#00ff00;stroke:#0000ff;stroke-width:0.34722221"
     d="m 142.69315,105.63014 c -11.32425,19.26228 -20.61576,35.01964 -20.64781,35.01636 -0.0321,-0.003 -13.98026,-8.12237 -30.996042,-18.04243 l -30.937787,-18.03646 3.920775,-7.211993 c 2.156424,-3.966596 5.730711,-10.542253 7.942863,-14.612572 l 4.022095,-7.400582 -14.124726,-8.154915 -14.124724,-8.154913 -1.250028,2.651846 -1.250031,2.65185 -1.87839,-0.81676 c -1.033113,-0.44922 -2.147786,-0.886617 -2.477051,-0.971993 -0.414134,-0.107383 -0.520007,-0.394906 -0.343487,-0.932794 0.75915,-2.313258 2.984688,-6.194566 6.961733,-12.141166 2.447123,-3.659014 4.50919,-6.753497 4.582374,-6.876632 0.07317,-0.123141 0.877303,0.205803 1.78693,0.730977 l 1.653868,0.954861 -1.21528,2.104927 c -1.210815,2.097193 -1.212234,2.10665 -0.385049,2.576646 0.456564,0.259555 6.424769,3.437946 13.262539,7.063331 6.83777,3.625385 12.756853,6.775554 13.153506,7.000381 l 0.7212,0.408764 9.673346,-17.268537 c 9.348266,-16.688224 9.692126,-17.257829 10.232096,-16.949872 0.30712,0.175586 15.02823,8.225535 32.71316,17.889482 17.68492,9.663945 32.3245,17.666824 32.5324,17.784168 0.27912,0.157689 -0.0555,0.932525 -1.28047,2.96452 -0.91213,1.513154 -10.92376,18.511216 -22.24801,37.773496 z"
     id="path43"
     inkscape:connector-curvature="0" />
</svg>
