<?xml version="1.0" encoding="UTF-8" standalone="no"?>
<svg
   xmlns:dc="http://purl.org/dc/elements/1.1/"
   xmlns:cc="http://creativecommons.org/ns#"
   xmlns:rdf="http://www.w3.org/1999/02/22-rdf-syntax-ns#"
   xmlns:svg="http://www.w3.org/2000/svg"
   xmlns="http://www.w3.org/2000/svg"
   xmlns:sodipodi="http://sodipodi.sourceforge.net/DTD/sodipodi-0.dtd"
   xmlns:inkscape="http://www.inkscape.org/namespaces/inkscape"
   width="389.7735"
   height="337.55374"
   viewBox="0 0 194.88675 168.77687"
   version="1.1"
   id="svg12"
   sodipodi:docname="hexMyTank3.svg"
   inkscape:version="0.92.1 r15371">
  <metadata
     id="metadata18">
    <rdf:RDF>
      <cc:Work
         rdf:about="">
        <dc:format>image/svg+xml</dc:format>
        <dc:type
           rdf:resource="http://purl.org/dc/dcmitype/StillImage" />
        <dc:title></dc:title>
      </cc:Work>
    </rdf:RDF>
  </metadata>
  <defs
     id="defs16" />
  <sodipodi:namedview
     pagecolor="#ffffff"
     bordercolor="#666666"
     borderopacity="1"
     objecttolerance="10"
     gridtolerance="10"
     guidetolerance="10"
     inkscape:pageopacity="0"
     inkscape:pageshadow="2"
     inkscape:window-width="1366"
     inkscape:window-height="745"
     id="namedview14"
     showgrid="false"
     inkscape:zoom="1.44"
     inkscape:cx="58.081194"
     inkscape:cy="168.77688"
     inkscape:window-x="1432"
     inkscape:window-y="-8"
     inkscape:window-maximized="1"
     inkscape:current-layer="svg12" />
  <polygon
     style="fill:none;stroke:#000000;stroke-width:2.5px"
     points="4,100 52,16.861561 148,16.861561 196,100 148,183.13844 52,183.13844 "
     id="polygon10"
     transform="translate(-2.5566243,-15.611561)" />
  <path
     style="fill:none;stroke-width:0.69444442"
     d="M 99.62059,330.54769 C 99.074646,329.68832 77.828715,292.93742 52.407408,248.87903 L 6.186853,168.77287 53.456016,86.899861 100.72518,5.0268615 l 94.19884,0.00934 94.19884,0.00934 47.09451,81.6139765 c 25.90197,44.887692 46.99572,82.023792 46.875,82.524672 -0.12073,0.50088 -21.27081,37.36413 -47.00016,81.91834 l -46.78066,81.00765 h -94.34917 -94.34916 z"
     id="path3695"
     inkscape:connector-curvature="0"
     transform="scale(0.5)" />
  <path
     style="fill:none;stroke-width:0.69444442"
     d="M 99.62059,330.54769 C 99.074646,329.68832 77.828715,292.93742 52.407408,248.87903 L 6.186853,168.77287 53.456016,86.899861 100.72518,5.0268615 l 94.19884,0.00934 94.19884,0.00934 47.09451,81.6139765 c 25.90197,44.887692 46.99572,82.023792 46.875,82.524672 -0.12073,0.50088 -21.27081,37.36413 -47.00016,81.91834 l -46.78066,81.00765 h -94.34917 -94.34916 z"
     id="path3697"
     inkscape:connector-curvature="0"
     transform="scale(0.5)" />
  <path
     style="fill:none;stroke-width:0.69444442"
     d="M 99.62059,330.54769 C 99.074646,329.68832 77.828715,292.93742 52.407408,248.87903 L 6.186853,168.77287 53.456016,86.899861 100.72518,5.0268615 l 94.19884,0.00934 94.19884,0.00934 47.09451,81.6139765 c 25.90197,44.887692 46.99572,82.023792 46.875,82.524672 -0.12073,0.50088 -21.27081,37.36413 -47.00016,81.91834 l -46.78066,81.00765 h -94.34917 -94.34916 z"
     id="path3699"
     inkscape:connector-curvature="0"
     transform="scale(0.5)" />
  <path
     style="fill:none;stroke-width:0.69444442"
     d="M 99.62059,330.54769 C 99.074646,329.68832 77.828715,292.93742 52.407408,248.87903 L 6.186853,168.77287 53.456016,86.899861 100.72518,5.0268615 l 94.19884,0.00934 94.19884,0.00934 47.09451,81.6139765 c 25.90197,44.887692 46.99572,82.023792 46.875,82.524672 -0.12073,0.50088 -21.27081,37.36413 -47.00016,81.91834 l -46.78066,81.00765 h -94.34917 -94.34916 z"
     id="path3701"
     inkscape:connector-curvature="0"
     transform="scale(0.5)" />
  <path
     style="fill:none;stroke-width:0.69444442"
     d="M 99.62059,330.54769 C 99.074646,329.68832 77.828715,292.93742 52.407408,248.87903 L 6.186853,168.77287 53.456016,86.899861 100.72518,5.0268615 l 94.19884,0.00934 94.19884,0.00934 47.09451,81.6139765 c 25.90197,44.887692 46.99572,82.023792 46.875,82.524672 -0.12073,0.50088 -21.27081,37.36413 -47.00016,81.91834 l -46.78066,81.00765 h -94.34917 -94.34916 z"
     id="path3703"
     inkscape:connector-curvature="0"
     transform="scale(0.5)" />
  <path
     style="fill:none;stroke-width:0.69444442"
     d="M 99.62059,330.54769 C 99.074646,329.68832 77.828715,292.93742 52.407408,248.87903 L 6.186853,168.77287 53.456016,86.899861 100.72518,5.0268615 l 94.19884,0.00934 94.19884,0.00934 47.09451,81.6139765 c 25.90197,44.887692 46.99572,82.023792 46.875,82.524672 -0.12073,0.50088 -21.27081,37.36413 -47.00016,81.91834 l -46.78066,81.00765 h -94.34917 -94.34916 z"
     id="path3705"
     inkscape:connector-curvature="0"
     transform="scale(0.5)" />
  <path
     style="fill:none;stroke-width:0.69444442"
     d="M 99.62059,330.54769 C 99.074646,329.68832 77.828715,292.93742 52.407408,248.87903 L 6.186853,168.77287 53.456016,86.899861 100.72518,5.0268615 l 94.19884,0.00934 94.19884,0.00934 47.09451,81.6139765 c 25.90197,44.887692 46.99572,82.023792 46.875,82.524672 -0.12073,0.50088 -21.27081,37.36413 -47.00016,81.91834 l -46.78066,81.00765 h -94.34917 -94.34916 z"
     id="path3707"
     inkscape:connector-curvature="0"
     transform="scale(0.5)" />
  <path
     style="fill:none;stroke-width:0.69444442"
     d="M 99.62059,330.54769 C 99.074646,329.68832 77.828715,292.93742 52.407408,248.87903 L 6.186853,168.77287 53.456016,86.899861 100.72518,5.0268615 l 94.19884,0.00934 94.19884,0.00934 47.09451,81.6139765 c 25.90197,44.887692 46.99572,82.023792 46.875,82.524672 -0.12073,0.50088 -21.27081,37.36413 -47.00016,81.91834 l -46.78066,81.00765 h -94.34917 -94.34916 z"
     id="path3709"
     inkscape:connector-curvature="0"
     transform="scale(0.5)" />
  <path
     style="fill:none;stroke-width:0.5"
     id="path3711"
     d="m 134.8426,78.739199 c -0.82569,-0.513201 -1.67402,-0.988893 -2.51852,-1.470173 -0.56673,-0.260817 -1.15263,-0.482219 -1.76474,-0.604911 -0.63985,-0.115825 -1.23125,-0.382489 -1.80541,-0.677334 -0.91148,-0.379418 -1.86686,-0.632273 -2.78794,-0.990256 -0.9884,-0.442125 -2.03198,-0.734501 -3.0782,-1.002661 -1.18351,-0.334921 -2.38658,-0.560682 -3.60466,-0.720962 -1.18229,-0.103542 -2.3689,-0.05533 -3.5536,-0.0777 -1.2559,-0.0905 -2.5085,-0.09196 -3.76419,-0.02117 -0.93659,0.126147 -1.87872,0.137851 -2.82023,0.186363 -0.86591,0.108795 -1.70314,0.325588 -2.54463,0.546784 -0.75233,0.184403 -1.45364,0.500255 -2.1729,0.774 -0.62105,0.315297 -1.29199,0.495791 -1.88964,0.856237 -0.72379,0.354838 -1.28431,0.939096 -1.921,1.414236 -0.59319,0.466827 -1.042124,1.070288 -1.456161,1.693591 -0.376771,0.590987 -0.721928,1.201317 -1.070404,1.809194 -0.412668,0.717763 -0.830097,1.432771 -1.242771,2.150542 -0.391705,0.683453 -0.783845,1.36666 -1.176681,2.049472 -0.414526,0.57946 -0.626762,1.234085 -0.870697,1.892683 -0.209136,1.052304 -0.47438,2.09219 -0.78499,3.118932 -0.350781,0.88084 -0.256688,1.801277 -0.351636,2.71598 0.180137,4.364235 -0.19452,-17.056001 0.0013,1.116346 0.01698,1.575658 -0.04836,-6.301886 0.01072,-4.727242 0.02923,0.779145 0.0067,12.52883 0.02249,0.824335 0.0092,1.037533 0.175842,2.054663 0.405769,3.062848 0.287534,1.201416 0.572053,2.396415 0.979607,3.563271 0.595852,1.715073 1.327365,3.378207 2.205899,4.966606 0.612892,0.99216 1.147753,2.02761 1.70523,3.05044 0.506919,0.89293 1.033505,1.77442 1.549235,2.66219 0.33591,0.87831 0.84352,1.5707 1.52359,2.21309 0.85218,0.75043 1.8071,1.36868 2.77432,1.95799 0.77254,0.44025 1.51384,0.94191 2.35098,1.25145 0.50492,0.11026 1.01649,0.12516 1.53075,0.11047 0.64677,0.0457 1.28024,-0.10173 1.92341,-0.14299 0.85628,-0.0509 1.71012,-0.17811 2.54945,-0.35253 0.73584,-0.11145 1.44362,-0.34882 2.17146,-0.49771 0.56886,-0.19865 1.14478,-0.38641 1.70146,-0.61874 0.69686,-0.34038 1.43858,-0.56465 2.12617,-0.92738 0.92272,-0.47029 1.84102,-0.94581 2.74091,-1.45889 0.85757,-0.53188 1.77392,-0.95559 2.66086,-1.43324 0.77854,-0.43915 1.48189,-0.97636 2.14435,-1.57343 0.0989,-0.10069 0.19786,-0.20135 0.29673,-0.30208 0.0386,-0.0394 0.3203,-0.33757 0.40643,-0.39297 1.67017,-1.07428 1.2968,4.06553 0.11349,5.43232 -0.29298,0.20597 -0.15234,0.10013 -0.42256,0.31661 0,0 -0.34863,-5.14656 -0.34863,-5.14656 v 0 c 0.25875,-0.20808 0.13767,-0.10299 0.36478,-0.31347 1.5262,-1.36868 1.7247,3.83442 0.66472,4.86583 -0.12351,0.12018 -0.2572,0.22949 -0.38333,0.34693 -0.10798,0.10054 -0.21599,0.20105 -0.32399,0.30158 -0.70318,0.59706 -1.44306,1.13758 -2.26299,1.56698 -0.89124,0.46568 -1.78957,0.91953 -2.65233,1.43709 -0.92133,0.49137 -1.84053,0.98615 -2.76002,1.47992 -0.71306,0.34056 -1.46147,0.59349 -2.17032,0.94272 -0.59093,0.22347 -1.17914,0.46399 -1.79098,0.62267 -0.72667,0.15144 -1.43989,0.36654 -2.17671,0.46649 -0.86535,0.16161 -1.7342,0.32695 -2.61429,0.38002 -0.6474,0.0461 -1.28734,0.19277 -1.9395,0.15424 -0.58158,0.0249 -1.15747,-0.008 -1.72931,-0.12488 -0.87753,-0.31666 -1.64876,-0.82931 -2.44791,-1.30487 -0.99636,-0.59858 -1.98912,-1.20581 -2.87,-1.97109 -0.72817,-0.62654 -1.42776,-1.23197 -1.706089,-2.18862 -0.442728,-0.92927 -1.050146,-1.7778 -1.525427,-2.69163 -0.61783,-1.00199 -1.079087,-2.09265 -1.705625,-3.09117 -0.921032,-1.57827 -1.64109,-3.26639 -2.284774,-4.97473 -0.464178,-1.14575 -0.767295,-2.315661 -1.049587,-3.517746 -0.252866,-1.009304 -0.476192,-2.021922 -0.510245,-3.06624 -0.0074,-1.837707 -0.01728,-3.675414 -0.02214,-5.513123 -0.0041,-1.570193 0.0718,6.27989 0.02002,4.710547 -0.05967,-1.808428 0.05089,-3.621126 -0.0437,-5.428066 -0.08183,-1.563424 -0.0086,6.262187 0.0054,4.69669 0.01625,-1.817791 -0.0066,-3.635745 0.0014,-5.453589 5.35e-4,-0.122407 0.01613,-0.244286 0.0242,-0.366431 0.0426,-0.9168 0.157832,-1.807434 0.464807,-2.68095 0.298451,-1.053052 0.495159,-2.13066 0.814736,-3.176255 0.251026,-0.669319 0.574004,-1.295243 0.956083,-1.900283 0.392433,-0.677715 0.785731,-1.354925 1.177731,-2.03289 0.416454,-0.72168 0.826962,-1.446741 1.240666,-2.169997 0.355219,-0.613256 0.708904,-1.228858 1.114951,-1.810431 0.463962,-0.634767 0.978588,-1.229145 1.612633,-1.702048 0.6391,-0.509992 1.26069,-1.049252 1.99604,-1.421537 0.63483,-0.330737 1.31137,-0.567578 1.96115,-0.867315 0.73145,-0.289124 1.46601,-0.553413 2.23185,-0.740891 0.87668,-0.230106 1.74521,-0.492273 2.65513,-0.557459 0.94511,-0.02828 1.88033,-0.0797 2.8201,-0.189453 1.26359,-0.0316 2.52401,0.0089 3.78633,0.07792 1.20638,-0.01688 2.41592,-0.06336 3.61994,0.0397 1.23773,0.16708 2.45567,0.412279 3.65684,0.757769 1.07319,0.242477 2.15521,0.482262 3.15176,0.96462 0.92866,0.378415 1.88945,0.643717 2.83745,0.963211 0.53209,0.27135 1.07135,0.54223 1.66344,0.655066 0.67047,0.131695 1.30755,0.36508 1.93181,0.644424 0.83497,0.488307 1.66686,0.983029 2.52015,1.438904 0,0 -0.26961,5.144591 -0.26961,5.144591 z"
     inkscape:connector-curvature="0" />
  <path
     style="fill:none;stroke-width:0.5"
     id="path3713"
     d="m 81.959322,78.561986 c 0.899439,0.379745 1.857882,0.456194 2.820225,0.472257 0.830691,-0.03885 1.659956,-0.08622 2.491677,-0.105911 0.869723,-0.0038 1.735379,0.02173 2.60416,0.06659 1.165354,0.128457 2.332647,0.124008 3.496859,-0.004 1.488303,-0.142968 2.981002,-0.218197 4.473053,-0.309106 1.547225,-0.220372 3.104224,-0.34608 4.661524,-0.468499 1.5394,-0.1351 3.07679,-0.286693 4.62129,-0.3484 2.11155,-0.152974 4.21575,-0.387117 6.3142,-0.667929 1.72168,-0.134759 3.40859,-0.526724 5.11854,-0.735474 1.58744,-0.22387 3.16932,-0.470243 4.74933,-0.740514 2.15392,-0.36412 4.29945,-0.802515 6.41391,-1.352621 1.31889,-0.344292 2.64535,-0.684149 3.92167,-1.164096 1.34177,-0.41879 2.64862,-0.949168 3.93518,-1.51584 0.94035,-0.414019 1.85827,-0.879529 2.84304,-1.179645 0.64627,-0.27538 1.33737,-0.410348 1.97373,-0.709097 0.42655,-0.355686 1.03113,-0.593396 1.29819,-1.099958 -1.27856,-1.406596 -0.13786,-0.225994 -0.0861,4.852819 2e-4,0.01686 8.5e-4,-0.04368 -0.0154,-0.04814 -0.0608,-0.01661 -0.12591,-0.01098 -0.18881,-0.0077 -0.22105,0.01161 -0.44033,0.046 -0.66081,0.06565 -0.87153,0.2175 -1.75349,0.386212 -2.61988,0.63051 -1.14768,0.279089 -2.28595,0.596878 -3.42631,0.904938 -1.71574,0.394561 -3.32072,1.07419 -4.92402,1.786024 -2.36473,1.081737 -4.65965,2.305062 -6.98439,3.467212 -1.69239,0.749989 -3.12478,1.895172 -4.53307,3.069934 -1.98459,1.75687 -3.89131,3.606701 -5.57607,5.655075 -1.19762,1.497363 -2.15905,3.158527 -3.14988,4.794087 -0.85617,1.456627 -0.4402,0.712938 -1.24627,2.231997 0,0 -0.53353,-4.924264 -0.53353,-4.924264 v 0 c 0.82863,-1.534331 0.40744,-0.778295 1.26272,-2.26859 0.96061,-1.676424 1.98603,-3.321292 3.23291,-4.803689 1.74038,-2.02034 3.70692,-3.821858 5.65449,-5.639364 1.39981,-1.269611 2.90927,-2.367966 4.65944,-3.116496 2.33085,-1.133133 4.66188,-2.265447 7.00089,-3.381862 0.82943,-0.397544 1.63956,-0.836976 2.48415,-1.201193 0.80262,-0.346128 1.69628,-0.463796 2.51801,-0.753731 1.13995,-0.310018 2.27723,-0.629526 3.42063,-0.926398 0.89605,-0.252363 1.80516,-0.444158 2.70981,-0.662014 0.14702,-0.01586 1.37891,-0.179882 1.3954,-0.02996 0.54855,4.987875 1.37934,3.950828 0.0695,5.44405 -0.46068,0.433287 -0.99715,0.794549 -1.54968,1.098698 -0.66448,0.271836 -1.36097,0.444866 -2.03205,0.699288 -0.96088,0.300415 -1.86761,0.735204 -2.79363,1.125951 -1.31365,0.531896 -2.62475,1.078705 -3.96343,1.542548 -1.30044,0.439651 -2.63447,0.77101 -3.97173,1.079104 -2.12917,0.526388 -4.28856,0.918682 -6.441,1.336573 -1.58108,0.35396 -3.18105,0.576828 -4.7845,0.805725 -1.70649,0.214132 -3.39944,0.539189 -5.11894,0.653008 -2.11992,0.246416 -4.22998,0.565749 -6.35577,0.741337 -1.53798,0.06268 -3.0671,0.226743 -4.60141,0.344336 -1.5599,0.126606 -3.118656,0.262545 -4.669995,0.472383 -1.484311,0.09653 -2.970092,0.173291 -4.4499,0.328282 -1.188162,0.127708 -2.383256,0.180672 -3.573477,0.03921 -0.857682,-0.02844 -1.712449,-0.04558 -2.570226,-0.04691 -0.839582,0.0203 -1.677144,0.06375 -2.515995,0.09709 -1.020151,-0.03091 -2.024257,-0.140024 -3.00475,-0.445951 0,0 0.196578,-5.147322 0.196578,-5.147322 z"
     inkscape:connector-curvature="0" />
  <path
     style="fill:none;stroke:#000000;stroke-width:0.5px;stroke-linecap:butt;stroke-linejoin:miter;stroke-opacity:1"
     d="m 157.85583,111.42734 -9.58267,14.51433 -3.90914,-2.25695 2.43055,-4.20984 -27.28342,-14.54928 -19.49097,34.45378 -66.722063,-36.51731 44.872243,-76.33211 62.67337,36.585421 -16.06526,29.214738 27.6647,15.972221 2.34998,-5.45918 5.89308,2.47754 z"
     id="path31"
     inkscape:connector-curvature="0"
     sodipodi:nodetypes="cccccccccccccc" />
  <path
     style="fill:#00ff00;stroke:#0000ff;stroke-width:0.34722221"
     d="M 57.658706,62.133278 C 68.982954,42.870995 78.274465,27.113635 78.30651,27.116912 c 0.03206,0.0033 13.980264,8.122373 30.99605,18.042435 l 30.93778,18.036461 -3.92077,7.211991 c -2.15643,3.966596 -5.73071,10.542254 -7.94286,14.612572 l -4.0221,7.400583 14.12473,8.154916 14.12472,8.15491 1.25003,-2.65184 1.25003,-2.65185 1.87839,0.81676 c 1.03311,0.44922 2.14779,0.88661 2.47705,0.97199 0.41413,0.10738 0.52001,0.3949 0.34349,0.93279 -0.75915,2.31326 -2.98469,6.19457 -6.96174,12.14117 -2.44712,3.65901 -4.50919,6.75349 -4.58237,6.87663 -0.0732,0.12314 -0.8773,-0.2058 -1.78693,-0.73098 l -1.65387,-0.95486 1.21528,-2.10493 c 1.21082,-2.09719 1.21224,-2.10665 0.38505,-2.57664 -0.45656,-0.25956 -6.42477,-3.43795 -13.26254,-7.06333 -6.83777,-3.62539 -12.75685,-6.77555 -13.1535,-7.00038 l -0.7212,-0.40877 -9.67335,17.26854 c -9.34827,16.68822 -9.692124,17.25783 -10.232092,16.94987 -0.307124,-0.17558 -15.028234,-8.22553 -32.713162,-17.88948 -17.684923,-9.66394 -32.324506,-17.66682 -32.532401,-17.78417 -0.279126,-0.15769 0.05554,-0.93252 1.28047,-2.964517 0.91213,-1.513155 10.923754,-18.511216 22.248006,-37.773496 z"
     id="path43"
     inkscape:connector-curvature="0" />
</svg>
