<?xml version="1.0" encoding="UTF-8" standalone="no"?>
<svg
   xmlns:dc="http://purl.org/dc/elements/1.1/"
   xmlns:cc="http://creativecommons.org/ns#"
   xmlns:rdf="http://www.w3.org/1999/02/22-rdf-syntax-ns#"
   xmlns:svg="http://www.w3.org/2000/svg"
   xmlns="http://www.w3.org/2000/svg"
   xmlns:sodipodi="http://sodipodi.sourceforge.net/DTD/sodipodi-0.dtd"
   xmlns:inkscape="http://www.inkscape.org/namespaces/inkscape"
   width="389.7735"
   height="337.55374"
   viewBox="0 0 194.88675 168.77687"
   version="1.1"
   id="svg12"
   sodipodi:docname="hexMyTank5.svg"
   inkscape:version="0.92.1 r15371">
  <metadata
     id="metadata18">
    <rdf:RDF>
      <cc:Work
         rdf:about="">
        <dc:format>image/svg+xml</dc:format>
        <dc:type
           rdf:resource="http://purl.org/dc/dcmitype/StillImage" />
        <dc:title></dc:title>
      </cc:Work>
    </rdf:RDF>
  </metadata>
  <defs
     id="defs16" />
  <sodipodi:namedview
     pagecolor="#ffffff"
     bordercolor="#666666"
     borderopacity="1"
     objecttolerance="10"
     gridtolerance="10"
     guidetolerance="10"
     inkscape:pageopacity="0"
     inkscape:pageshadow="2"
     inkscape:window-width="1366"
     inkscape:window-height="745"
     id="namedview14"
     showgrid="false"
     inkscape:zoom="1.44"
     inkscape:cx="58.081194"
     inkscape:cy="168.77688"
     inkscape:window-x="1432"
     inkscape:window-y="-8"
     inkscape:window-maximized="1"
     inkscape:current-layer="svg12" />
  <polygon
     style="fill:none;stroke:#000000;stroke-width:2.5px"
     points="4,100 52,16.861561 148,16.861561 196,100 148,183.13844 52,183.13844 "
     id="polygon10"
     transform="translate(-2.5566243,-15.611561)" />
  <path
     style="fill:none;stroke-width:0.69444442"
     d="M 99.62059,330.54769 C 99.074646,329.68832 77.828715,292.93742 52.407408,248.87903 L 6.186853,168.77287 53.456016,86.899861 100.72518,5.0268615 l 94.19884,0.00934 94.19884,0.00934 47.09451,81.6139765 c 25.90197,44.887692 46.99572,82.023792 46.875,82.524672 -0.12073,0.50088 -21.27081,37.36413 -47.00016,81.91834 l -46.78066,81.00765 h -94.34917 -94.34916 z"
     id="path3695"
     inkscape:connector-curvature="0"
     transform="scale(0.5)" />
  <path
     style="fill:none;stroke-width:0.69444442"
     d="M 99.62059,330.54769 C 99.074646,329.68832 77.828715,292.93742 52.407408,248.87903 L 6.186853,168.77287 53.456016,86.899861 100.72518,5.0268615 l 94.19884,0.00934 94.19884,0.00934 47.09451,81.6139765 c 25.90197,44.887692 46.99572,82.023792 46.875,82.524672 -0.12073,0.50088 -21.27081,37.36413 -47.00016,81.91834 l -46.78066,81.00765 h -94.34917 -94.34916 z"
     id="path3697"
     inkscape:connector-curvature="0"
     transform="scale(0.5)" />
  <path
     style="fill:none;stroke-width:0.69444442"
     d="M 99.62059,330.54769 C 99.074646,329.68832 77.828715,292.93742 52.407408,248.87903 L 6.186853,168.77287 53.456016,86.899861 100.72518,5.0268615 l 94.19884,0.00934 94.19884,0.00934 47.09451,81.6139765 c 25.90197,44.887692 46.99572,82.023792 46.875,82.524672 -0.12073,0.50088 -21.27081,37.36413 -47.00016,81.91834 l -46.78066,81.00765 h -94.34917 -94.34916 z"
     id="path3699"
     inkscape:connector-curvature="0"
     transform="scale(0.5)" />
  <path
     style="fill:none;stroke-width:0.69444442"
     d="M 99.62059,330.54769 C 99.074646,329.68832 77.828715,292.93742 52.407408,248.87903 L 6.186853,168.77287 53.456016,86.899861 100.72518,5.0268615 l 94.19884,0.00934 94.19884,0.00934 47.09451,81.6139765 c 25.90197,44.887692 46.99572,82.023792 46.875,82.524672 -0.12073,0.50088 -21.27081,37.36413 -47.00016,81.91834 l -46.78066,81.00765 h -94.34917 -94.34916 z"
     id="path3701"
     inkscape:connector-curvature="0"
     transform="scale(0.5)" />
  <path
     style="fill:none;stroke-width:0.69444442"
     d="M 99.62059,330.54769 C 99.074646,329.68832 77.828715,292.93742 52.407408,248.87903 L 6.186853,168.77287 53.456016,86.899861 100.72518,5.0268615 l 94.19884,0.00934 94.19884,0.00934 47.09451,81.6139765 c 25.90197,44.887692 46.99572,82.023792 46.875,82.524672 -0.12073,0.50088 -21.27081,37.36413 -47.00016,81.91834 l -46.78066,81.00765 h -94.34917 -94.34916 z"
     id="path3703"
     inkscape:connector-curvature="0"
     transform="scale(0.5)" />
  <path
     style="fill:none;stroke-width:0.69444442"
     d="M 99.62059,330.54769 C 99.074646,329.68832 77.828715,292.93742 52.407408,248.87903 L 6.186853,168.77287 53.456016,86.899861 100.72518,5.0268615 l 94.19884,0.00934 94.19884,0.00934 47.09451,81.6139765 c 25.90197,44.887692 46.99572,82.023792 46.875,82.524672 -0.12073,0.50088 -21.27081,37.36413 -47.00016,81.91834 l -46.78066,81.00765 h -94.34917 -94.34916 z"
     id="path3705"
     inkscape:connector-curvature="0"
     transform="scale(0.5)" />
  <path
     style="fill:none;stroke-width:0.69444442"
     d="M 99.62059,330.54769 C 99.074646,329.68832 77.828715,292.93742 52.407408,248.87903 L 6.186853,168.77287 53.456016,86.899861 100.72518,5.0268615 l 94.19884,0.00934 94.19884,0.00934 47.09451,81.6139765 c 25.90197,44.887692 46.99572,82.023792 46.875,82.524672 -0.12073,0.50088 -21.27081,37.36413 -47.00016,81.91834 l -46.78066,81.00765 h -94.34917 -94.34916 z"
     id="path3707"
     inkscape:connector-curvature="0"
     transform="scale(0.5)" />
  <path
     style="fill:none;stroke-width:0.69444442"
     d="M 99.62059,330.54769 C 99.074646,329.68832 77.828715,292.93742 52.407408,248.87903 L 6.186853,168.77287 53.456016,86.899861 100.72518,5.0268615 l 94.19884,0.00934 94.19884,0.00934 47.09451,81.6139765 c 25.90197,44.887692 46.99572,82.023792 46.875,82.524672 -0.12073,0.50088 -21.27081,37.36413 -47.00016,81.91834 l -46.78066,81.00765 h -94.34917 -94.34916 z"
     id="path3709"
     inkscape:connector-curvature="0"
     transform="scale(0.5)" />
  <path
     style="fill:none;stroke-width:0.5"
     id="path3711"
     d="m 84.570662,120.63272 c 0.857291,-0.45846 1.693413,-0.95529 2.532465,-1.44601 0.509239,-0.36039 0.993928,-0.75709 1.406241,-1.22586 0.42023,-0.49621 0.946865,-0.87504 1.489292,-1.22486 0.784326,-0.59965 1.480995,-1.30061 2.251557,-1.91929 0.87709,-0.63492 1.65209,-1.3925 2.40743,-2.16447 0.8818,-0.85749 1.67885,-1.7865 2.4267,-2.76125 0.68081,-0.97213 1.23237,-2.02387 1.84409,-3.03866 0.70633,-1.04239 1.333893,-2.12644 1.900443,-3.2493 0.35904,-0.87418 0.81997,-1.69594 1.24872,-2.53558 0.33873,-0.80429 0.5696,-1.637747 0.79878,-2.477094 0.21647,-0.743743 0.29359,-1.509019 0.41615,-2.268789 0.0375,-0.695493 0.21662,-1.366787 0.20329,-2.064598 0.0546,-0.804233 -0.17112,-1.581791 -0.26426,-2.370746 -0.10769,-0.747132 -0.40584,-1.437652 -0.73861,-2.107871 -0.32343,-0.621786 -0.67941,-1.225866 -1.03161,-1.831594 -0.41527,-0.716262 -0.82577,-1.435271 -1.24104,-2.151542 -0.396033,-0.680953 -0.791643,-1.36216 -1.186553,-2.043772 -0.29457,-0.64872 -0.75537,-1.159834 -1.20377,-1.700387 -0.80675,-0.707269 -1.5747,-1.456921 -2.30858,-2.239288 -0.58743,-0.744205 -1.4316,-1.122936 -2.17629,-1.662515 -3.869601,-2.026114 14.868203,8.359541 -0.96743,-0.55704 -1.373053,-0.773124 5.48177,3.109065 4.08855,2.372902 -0.68937,-0.36426 -10.853614,-6.258642 -0.72514,-0.392691 -0.90314,-0.510773 -1.86731,-0.875048 -2.85539,-1.180018 -1.18422,-0.351696 -2.361381,-0.702795 -3.575685,-0.933271 -1.783223,-0.341513 -3.589295,-0.539571 -5.40416,-0.572939 -1.165682,0.0347 -2.329833,-0.01982 -3.49437,-0.04845 -1.026759,-0.0075 -2.053443,0.0078 -3.080141,0.01058 -0.928595,-0.148244 -1.782028,-0.05483 -2.678386,0.21293 -1.075986,0.362787 -2.088861,0.880656 -3.082828,1.423635 -0.767544,0.448915 -1.572644,0.84007 -2.259276,1.410279 -0.347959,0.382148 -0.616646,0.817728 -0.861052,1.270444 -0.362995,0.537244 -0.55202,1.159584 -0.83787,1.737218 -0.384064,0.767 -0.700814,1.570054 -0.969424,2.384147 -0.271404,0.692984 -0.419725,1.424626 -0.654701,2.129395 -0.112394,0.591977 -0.237755,1.184616 -0.314885,1.782884 -0.05365,0.77368 -0.230287,1.52817 -0.259953,2.304997 -0.05407,1.034251 -0.101412,2.067279 -0.107022,3.103144 0.03184,1.008621 -0.05939,2.014063 -0.08921,3.020996 -0.009,0.893809 0.10461,1.771536 0.290454,2.643774 0.03775,0.13601 0.07545,0.27203 0.113252,0.40801 0.01478,0.0532 0.132189,0.44618 0.137103,0.54847 0.09527,1.98355 -4.169249,-0.9097 -4.761273,-2.617873 -0.03188,-0.35671 -0.01054,-0.181998 -0.06291,-0.524251 0,0 4.631369,2.271354 4.631369,2.271354 v 0 c 0.05083,0.32812 0.02036,0.17072 0.08908,0.47264 0.422213,2.00607 -4.18305,-0.42357 -4.546291,-1.857247 -0.04233,-0.167053 -0.07014,-0.337484 -0.108785,-0.505433 -0.03309,-0.143786 -0.06612,-0.287584 -0.09918,-0.431379 -0.165484,-0.9075 -0.263643,-1.818513 -0.225553,-2.743295 0.04233,-1.004678 0.09845,-2.009577 0.08161,-3.01553 0.03512,-1.043585 0.06623,-2.087024 0.09836,-3.130208 0.0616,-0.787806 0.216763,-1.562415 0.268738,-2.350911 0.101941,-0.623493 0.187745,-1.253166 0.356246,-1.862374 0.232187,-0.70503 0.40251,-1.430253 0.684365,-2.118325 0.292709,-0.830223 0.583946,-1.665335 0.978038,-2.454049 0.28375,-0.58373 0.476728,-1.211262 0.836175,-1.756781 0.269249,-0.516099 0.585473,-0.998512 0.972806,-1.435192 0.712993,-0.60163 1.542579,-1.013215 2.354005,-1.467513 1.016561,-0.563586 2.038818,-1.119723 3.14201,-1.49995 0.906683,-0.317348 1.780802,-0.62049 2.74845,-0.383204 1.026129,0.08122 2.064687,-0.02056 3.093727,0.02475 1.17667,-0.03406 2.351837,0.111812 3.529845,0.06847 1.827343,-0.0085 3.64932,0.211968 5.450634,0.508695 1.224338,0.170886 2.389065,0.493332 3.571247,0.849902 1.000516,0.285664 1.989132,0.598567 2.910568,1.091236 1.59519,0.912461 3.19164,1.822738 4.78557,2.737388 1.3619,0.781508 -5.474443,-3.077766 -4.08946,-2.337938 1.59598,0.852539 3.11054,1.854631 4.72269,2.676191 1.39488,0.710845 -5.41892,-3.138527 -4.07016,-2.343655 1.56613,0.922971 3.15196,1.812135 4.72227,2.727969 0.10574,0.06167 0.20349,0.136116 0.30523,0.204176 0.77268,0.49529 1.48637,1.040404 2.089366,1.743011 0.76275,0.784992 1.59763,1.49415 2.34335,2.293709 0.45414,0.552054 0.83471,1.144723 1.16765,1.778134 0.3907,0.678714 0.78054,1.357925 1.17167,2.03639 0.41677,0.721499 0.83944,1.43954 1.25894,2.159446 0.35349,0.614257 0.70977,1.228359 1.01041,1.870791 0.31774,0.719187 0.57517,1.462055 0.66769,2.247609 0.12212,0.808471 0.27834,1.616417 0.23307,2.439386 -0.031,0.715153 -0.16415,1.419474 -0.22945,2.13206 -0.11534,0.778019 -0.25374,1.546311 -0.4743,2.303291 -0.23906,0.87428 -0.44628,1.75752 -0.84479,2.57813 -0.44806,0.83263 -0.87114,1.66826 -1.24598,2.53701 -0.60443,1.1101 -1.26969,2.18142 -1.96064,3.24009 -0.58857,1.05321 -1.1531,2.12393 -1.84436,3.11512 -0.76356,0.98836 -1.584866,1.92053 -2.484656,2.78802 -0.74659,0.80818 -1.49526,1.62534 -2.41127,2.2472 -0.79204,0.61504 -1.50219,1.31445 -2.25289,1.9757 -0.50104,0.32513 -1.00525,0.6567 -1.39902,1.11305 -0.44929,0.51479 -0.96995,0.94983 -1.523993,1.35078 -0.840372,0.47896 -1.684757,0.95203 -2.506205,1.46307 0,0 -4.320538,-2.80579 -4.320538,-2.80579 z"
     inkscape:connector-curvature="0" />
  <path
     style="fill:none;stroke-width:0.5"
     id="path3713"
     d="m 111.16577,74.92307 c -0.77859,0.589064 -1.32401,1.380875 -1.8191,2.206257 -0.3817,0.738824 -0.75531,1.480673 -1.15411,2.210811 -0.43159,0.755095 -0.88651,1.49202 -1.35975,2.221973 -0.69393,0.944998 -1.27372,1.958128 -1.74494,3.030387 -0.62034,1.360392 -1.30153,2.690721 -1.96883,4.02833 -0.58277,1.450122 -1.2524,2.861375 -1.92503,4.271249 -0.6527,1.40071 -1.290113,2.807928 -2.008923,4.17635 -0.9233,1.905144 -1.77262,3.844503 -2.57866,5.802223 -0.74413,1.5584 -1.24813,3.21529 -1.92233,4.80052 -0.59984,1.4867 -1.17741,2.97983 -1.73336,4.48331 -0.76162,2.0474 -1.454725,4.12468 -2.035553,6.23092 -0.361279,1.31434 -0.730184,2.63301 -0.952697,3.97831 -0.308204,1.37141 -0.502307,2.76836 -0.654834,4.16588 -0.111622,1.02138 -0.16744,2.04908 -0.399918,3.05198 -0.08465,0.69737 -0.313312,1.36336 -0.372768,2.06384 0.09476,0.54724 -0.0017,1.18968 0.303497,1.67425 1.857426,-0.40397 0.264648,-0.006 -4.159595,-2.50101 -0.0147,-0.008 0.0374,0.0226 0.04939,0.0107 0.04477,-0.0443 0.07246,-0.10355 0.101053,-0.15968 0.100471,-0.19724 0.180328,-0.40433 0.273548,-0.6051 0.247403,-0.86352 0.542274,-1.71167 0.763903,-2.58414 0.332139,-1.13346 0.626063,-2.27813 0.929451,-3.41974 0.516171,-1.68315 0.730089,-3.41293 0.915272,-5.15734 0.245551,-2.58878 0.33358,-5.1879 0.489502,-7.78227 0.19668,-1.84064 -0.07888,-3.65372 -0.392107,-5.46072 -0.529202,-2.59713 -1.177838,-5.17332 -2.109407,-7.656549 -0.697943,-1.785852 -1.655839,-3.449057 -2.576857,-5.124927 -0.833391,-1.469776 -0.397325,-0.737688 -1.309833,-2.195297 0,0 4.531302,2.000085 4.531302,2.000085 v 0 c 0.914454,1.484781 0.470307,0.741995 1.333298,2.22784 0.971521,1.670123 1.883306,3.380601 2.543663,5.201618 0.879472,2.5174 1.45636,5.12123 2.05658,7.71662 0.39962,1.84708 0.59609,3.70349 0.36925,5.59345 -0.1841,2.58514 -0.36901,5.17003 -0.57167,7.75388 -0.0704,0.91708 -0.0949,1.83839 -0.20181,2.75193 -0.10155,0.86815 -0.446478,1.70092 -0.606251,2.55753 -0.301494,1.14223 -0.593429,2.2869 -0.908032,3.42555 -0.229475,0.90219 -0.51793,1.7854 -0.781583,2.67777 -0.05977,0.13526 -0.533675,1.28411 -0.671757,1.22343 -4.593902,-2.01888 -4.111189,-0.78087 -4.74942,-2.66186 -0.1449,-0.6156 -0.189525,-1.26083 -0.176661,-1.89141 0.09682,-0.71137 0.295219,-1.40107 0.410422,-2.10945 0.220277,-0.98236 0.2971,-1.985 0.421717,-2.98234 0.196189,-1.4036 0.378187,-2.81245 0.645828,-4.2037 0.269471,-1.34604 0.649522,-2.66702 1.051332,-3.97917 0.608719,-2.10711 1.34868,-4.17335 2.062992,-6.24636 0.484005,-1.54624 1.090979,-3.04328 1.694474,-4.54636 0.667803,-1.58493 1.232768,-3.21359 1.993949,-4.75963 0.84656,-1.95912 1.62504,-3.946152 2.53587,-5.874936 0.71471,-1.363261 1.33718,-2.769558 2.0025,-4.1571 0.6703,-1.414217 1.33196,-2.83211 1.9259,-4.280529 0.65856,-1.333717 1.334973,-2.65882 1.940653,-4.017866 0.48348,-1.092834 1.03516,-2.154298 1.75278,-3.11433 0.45347,-0.728554 0.8957,-1.460234 1.32573,-2.202428 0.40222,-0.737248 0.78337,-1.484324 1.17392,-2.22746 0.53684,-0.868024 1.13339,-1.683047 1.88858,-2.379214 0,0 4.35942,2.743901 4.35942,2.743901 z"
     inkscape:connector-curvature="0" />
  <path
     style="fill:none;stroke:#000000;stroke-width:0.5px;stroke-linecap:butt;stroke-linejoin:miter;stroke-opacity:1"
     d="m 44.755287,124.2187 -7.778446,-15.556 3.909143,-2.25695 2.430555,4.20985 L 69.558296,94.262101 49.465927,60.155537 114.45189,20.631189 158.12131,97.657745 95.100717,133.64177 77.832644,105.12147 50.167945,121.0937 l 3.552795,4.76473 -5.092149,3.86479 z"
     id="path31"
     inkscape:connector-curvature="0"
     sodipodi:nodetypes="cccccccccccccc" />
  <path
     style="fill:#00ff00;stroke:#0000ff;stroke-width:0.34722221"
     d="m 137.54376,62.092472 c 11.0195,19.438228 20.02002,35.363593 20.00116,35.389707 -0.0189,0.02613 -14.02431,8.046071 -31.12323,17.822151 l -31.088933,17.77468 -4.285377,-7.00149 c -2.356961,-3.85082 -6.264503,-10.23407 -8.683427,-14.18501 l -4.398045,-7.18353 -14.124726,8.15492 -14.124724,8.15491 1.671552,2.40848 1.671554,2.40849 -1.64653,1.21835 c -0.905593,0.67009 -1.841726,1.41673 -2.080296,1.65919 -0.300064,0.30496 -0.602002,0.25289 -0.979567,-0.16893 -1.623765,-1.81407 -3.872307,-5.6821 -7.033691,-12.09962 -1.945238,-3.94878 -3.594105,-7.28182 -3.664152,-7.40677 -0.07006,-0.12494 0.616883,-0.65687 1.52651,-1.18204 l 1.653868,-0.95486 1.21528,2.10493 c 1.210815,2.09719 1.218296,2.10315 2.038916,1.62178 0.453064,-0.26562 6.189734,-3.84504 12.748294,-7.95403 6.55856,-4.108988 12.246228,-7.65998 12.639261,-7.891077 l 0.7146,-0.420196 L 60.073738,77.350875 C 50.295446,60.910925 49.974081,60.328336 50.510764,60.014688 50.816388,59.836504 65.148404,51.112623 82.360091,40.629 99.571777,30.14538 113.82226,21.468568 114.02784,21.347197 c 0.27612,-0.162885 0.77982,0.514361 1.92711,2.591181 0.85437,1.546504 10.56931,18.715856 21.5888,38.154086 z"
     id="path43"
     inkscape:connector-curvature="0" />
</svg>
