<?xml version="1.0" encoding="UTF-8" standalone="no"?>
<svg
   xmlns:dc="http://purl.org/dc/elements/1.1/"
   xmlns:cc="http://creativecommons.org/ns#"
   xmlns:rdf="http://www.w3.org/1999/02/22-rdf-syntax-ns#"
   xmlns:svg="http://www.w3.org/2000/svg"
   xmlns="http://www.w3.org/2000/svg"
   xmlns:sodipodi="http://sodipodi.sourceforge.net/DTD/sodipodi-0.dtd"
   xmlns:inkscape="http://www.inkscape.org/namespaces/inkscape"
   width="389.7735"
   height="337.55374"
   viewBox="0 0 194.88675 168.77687"
   version="1.1"
   id="svg12"
   sodipodi:docname="hexMyTank4.svg"
   inkscape:version="0.92.1 r15371">
  <metadata
     id="metadata18">
    <rdf:RDF>
      <cc:Work
         rdf:about="">
        <dc:format>image/svg+xml</dc:format>
        <dc:type
           rdf:resource="http://purl.org/dc/dcmitype/StillImage" />
        <dc:title></dc:title>
      </cc:Work>
    </rdf:RDF>
  </metadata>
  <defs
     id="defs16" />
  <sodipodi:namedview
     pagecolor="#ffffff"
     bordercolor="#666666"
     borderopacity="1"
     objecttolerance="10"
     gridtolerance="10"
     guidetolerance="10"
     inkscape:pageopacity="0"
     inkscape:pageshadow="2"
     inkscape:window-width="1366"
     inkscape:window-height="745"
     id="namedview14"
     showgrid="false"
     inkscape:zoom="1.44"
     inkscape:cx="58.081194"
     inkscape:cy="168.77688"
     inkscape:window-x="1432"
     inkscape:window-y="-8"
     inkscape:window-maximized="1"
     inkscape:current-layer="svg12" />
  <polygon
     style="fill:none;stroke:#000000;stroke-width:2.5px"
     points="4,100 52,16.861561 148,16.861561 196,100 148,183.13844 52,183.13844 "
     id="polygon10"
     transform="translate(-2.5566243,-15.611561)" />
  <path
     style="fill:none;stroke-width:0.69444442"
     d="M 99.62059,330.54769 C 99.074646,329.68832 77.828715,292.93742 52.407408,248.87903 L 6.186853,168.77287 53.456016,86.899861 100.72518,5.0268615 l 94.19884,0.00934 94.19884,0.00934 47.09451,81.6139765 c 25.90197,44.887692 46.99572,82.023792 46.875,82.524672 -0.12073,0.50088 -21.27081,37.36413 -47.00016,81.91834 l -46.78066,81.00765 h -94.34917 -94.34916 z"
     id="path3695"
     inkscape:connector-curvature="0"
     transform="scale(0.5)" />
  <path
     style="fill:none;stroke-width:0.69444442"
     d="M 99.62059,330.54769 C 99.074646,329.68832 77.828715,292.93742 52.407408,248.87903 L 6.186853,168.77287 53.456016,86.899861 100.72518,5.0268615 l 94.19884,0.00934 94.19884,0.00934 47.09451,81.6139765 c 25.90197,44.887692 46.99572,82.023792 46.875,82.524672 -0.12073,0.50088 -21.27081,37.36413 -47.00016,81.91834 l -46.78066,81.00765 h -94.34917 -94.34916 z"
     id="path3697"
     inkscape:connector-curvature="0"
     transform="scale(0.5)" />
  <path
     style="fill:none;stroke-width:0.69444442"
     d="M 99.62059,330.54769 C 99.074646,329.68832 77.828715,292.93742 52.407408,248.87903 L 6.186853,168.77287 53.456016,86.899861 100.72518,5.0268615 l 94.19884,0.00934 94.19884,0.00934 47.09451,81.6139765 c 25.90197,44.887692 46.99572,82.023792 46.875,82.524672 -0.12073,0.50088 -21.27081,37.36413 -47.00016,81.91834 l -46.78066,81.00765 h -94.34917 -94.34916 z"
     id="path3699"
     inkscape:connector-curvature="0"
     transform="scale(0.5)" />
  <path
     style="fill:none;stroke-width:0.69444442"
     d="M 99.62059,330.54769 C 99.074646,329.68832 77.828715,292.93742 52.407408,248.87903 L 6.186853,168.77287 53.456016,86.899861 100.72518,5.0268615 l 94.19884,0.00934 94.19884,0.00934 47.09451,81.6139765 c 25.90197,44.887692 46.99572,82.023792 46.875,82.524672 -0.12073,0.50088 -21.27081,37.36413 -47.00016,81.91834 l -46.78066,81.00765 h -94.34917 -94.34916 z"
     id="path3701"
     inkscape:connector-curvature="0"
     transform="scale(0.5)" />
  <path
     style="fill:none;stroke-width:0.69444442"
     d="M 99.62059,330.54769 C 99.074646,329.68832 77.828715,292.93742 52.407408,248.87903 L 6.186853,168.77287 53.456016,86.899861 100.72518,5.0268615 l 94.19884,0.00934 94.19884,0.00934 47.09451,81.6139765 c 25.90197,44.887692 46.99572,82.023792 46.875,82.524672 -0.12073,0.50088 -21.27081,37.36413 -47.00016,81.91834 l -46.78066,81.00765 h -94.34917 -94.34916 z"
     id="path3703"
     inkscape:connector-curvature="0"
     transform="scale(0.5)" />
  <path
     style="fill:none;stroke-width:0.69444442"
     d="M 99.62059,330.54769 C 99.074646,329.68832 77.828715,292.93742 52.407408,248.87903 L 6.186853,168.77287 53.456016,86.899861 100.72518,5.0268615 l 94.19884,0.00934 94.19884,0.00934 47.09451,81.6139765 c 25.90197,44.887692 46.99572,82.023792 46.875,82.524672 -0.12073,0.50088 -21.27081,37.36413 -47.00016,81.91834 l -46.78066,81.00765 h -94.34917 -94.34916 z"
     id="path3705"
     inkscape:connector-curvature="0"
     transform="scale(0.5)" />
  <path
     style="fill:none;stroke-width:0.69444442"
     d="M 99.62059,330.54769 C 99.074646,329.68832 77.828715,292.93742 52.407408,248.87903 L 6.186853,168.77287 53.456016,86.899861 100.72518,5.0268615 l 94.19884,0.00934 94.19884,0.00934 47.09451,81.6139765 c 25.90197,44.887692 46.99572,82.023792 46.875,82.524672 -0.12073,0.50088 -21.27081,37.36413 -47.00016,81.91834 l -46.78066,81.00765 h -94.34917 -94.34916 z"
     id="path3707"
     inkscape:connector-curvature="0"
     transform="scale(0.5)" />
  <path
     style="fill:none;stroke-width:0.69444442"
     d="M 99.62059,330.54769 C 99.074646,329.68832 77.828715,292.93742 52.407408,248.87903 L 6.186853,168.77287 53.456016,86.899861 100.72518,5.0268615 l 94.19884,0.00934 94.19884,0.00934 47.09451,81.6139765 c 25.90197,44.887692 46.99572,82.023792 46.875,82.524672 -0.12073,0.50088 -21.27081,37.36413 -47.00016,81.91834 l -46.78066,81.00765 h -94.34917 -94.34916 z"
     id="path3709"
     inkscape:connector-curvature="0"
     transform="scale(0.5)" />
  <path
     style="fill:none;stroke-width:0.5"
     id="path3711"
     d="m 123.75122,95.004101 c 0.0316,-0.97167 0.0194,-1.944185 0.0139,-2.916185 -0.0575,-0.62121 -0.1587,-1.239315 -0.35851,-1.83077 -0.21961,-0.612035 -0.28437,-1.25753 -0.31611,-1.902195 -0.12716,-0.979075 -0.38587,-1.932885 -0.53638,-2.90955 -0.11131,-1.077045 -0.3799,-2.127 -0.67077,-3.16713 -0.30171,-1.19241 -0.70773,-2.34718 -1.17796,-3.48221 -0.50148,-1.075665 -1.13654,-2.079195 -1.70951,-3.11636 -0.54958,-1.13289 -1.17461,-2.218405 -1.86376,-3.270475 -0.57754,-0.748035 -1.05874,-1.55809 -1.57151,-2.34921 -0.52717,-0.695495 -1.13354,-1.312165 -1.74584,-1.930315 -0.53587,-0.55934 -1.16006,-1.008765 -1.75676,-1.49479 -0.58358,-0.380195 -1.07536,-0.870995 -1.68634,-1.20836 -0.66919,-0.449395 -1.45544,-0.642695 -2.18526,-0.95651 -0.70088,-0.280305 -1.44796,-0.367365 -2.19478,-0.41428 -0.70019,-0.0308 -1.40133,-0.02455 -2.10201,-0.0224 -0.82793,0.0015 -1.65586,-0.0025 -2.48381,-0.001 -0.78774,0.0025 -1.575481,0.0045 -2.363231,0.0057 -0.70909,-0.06926 -1.38213,0.07425 -2.07446,0.192295 -1.01589,0.345035 -2.04908,0.63527 -3.09357,0.879645 -0.93822,0.136635 -1.688295,0.67834 -2.527925,1.053465 -3.68947,2.33812 14.673666,-8.69646 -0.96613,0.559305 -1.35607,0.802535 5.433415,-3.19282 4.09927,-2.35434 -0.660145,0.414885 -10.84695,6.270185 -0.70265,0.431645 -0.893915,0.52676 -1.69147,1.179615 -2.44962,1.88283 -0.89669,0.84972 -1.78933,1.69362 -2.59608,2.63 -1.18737,1.37356 -2.26193,2.838635 -3.19826,4.39367 -0.55279,1.02686 -1.18208,2.007785 -1.78914,3.00199 -0.51984,0.88547 -1.01994,1.78225 -1.53091,2.67277 -0.59268,0.730065 -0.9385,1.515865 -1.15479,2.426015 -0.22381,1.113225 -0.28176,2.249335 -0.30851,3.381625 0.005,0.88917 -0.0588,1.781985 0.0917,2.66173 0.15697,0.492415 0.39985,0.942895 0.66971,1.380915 0.28377,0.582985 0.72822,1.057855 1.08554,1.594225 0.47221,0.71611 1.0093,1.39195 1.58002,2.03162 0.46444,0.581535 1.0239,1.075805 1.51676,1.631685 0.45647,0.393325 0.90703,0.79821 1.38658,1.16414 0.6432,0.433305 1.20829,0.96352 1.86621,1.377625 0.86865,0.563955 1.73961,1.121465 2.63389,1.644255 0.88941,0.47674 1.714535,1.058465 2.571655,1.587759 0.769585,0.45465 1.5865,0.79517 2.434805,1.07034 0.13666,0.0353 0.273305,0.0707 0.409975,0.10593 0.05342,0.0138 0.452495,0.10861 0.543535,0.1555 1.76544,0.90927 -2.87245,3.15582 -4.64778,2.81444 -0.32486,-0.15074 -0.162885,-0.0819 -0.48547,-0.20764 0,0 4.282735,-2.8752 4.282735,-2.8752 v 0 c 0.309575,0.12004 0.15803,0.0677 0.45386,0.15917 1.948415,0.63739 -2.45835,3.41084 -3.88157,3.00858 -0.165835,-0.0469 -0.32734,-0.108 -0.49211,-0.15851 -0.141065,-0.0432 -0.282115,-0.0865 -0.423175,-0.12979 -0.86866,-0.31044 -1.7067,-0.68094 -2.48854,-1.17632 -0.84891,-0.539 -1.69112,-1.09005 -2.57072,-1.57844 -0.88621,-0.55221 -1.7743,-1.10087 -2.66166,-1.650284 -0.65146,-0.44725 -1.24471,-0.96893 -1.90158,-1.40819 -0.48899,-0.40003 -0.9914,-0.789175 -1.43474,-1.239705 -0.49448,-0.553595 -1.03738,-1.06371 -1.49234,-1.65184 -0.57264,-0.668605 -1.15025,-1.33838 -1.63625,-2.07403 -0.36365,-0.5376 -0.81062,-1.01849 -1.10333,-1.60254 -0.31233,-0.491225 -0.572,-1.00629 -0.75651,-1.56007 -0.16453,-0.918285 -0.10618,-1.84252 -0.0939,-2.772385 0.0202,-1.16216 0.0497,-2.32553 0.27201,-3.471035 0.17851,-0.943885 0.35304,-1.852465 1.04236,-2.57183 0.5834,-0.848045 1.01454,-1.79835 1.5683,-2.66687 0.55884,-1.036055 1.27275,-1.980845 1.82422,-3.0227 0.90631,-1.586775 2.00823,-3.05442 3.16586,-4.46604 0.76016,-0.974865 1.62177,-1.822325 2.52166,-2.66784 0.74765,-0.72364 1.51294,-1.423355 2.40032,-1.975005 1.58781,-0.925245 3.17436,-1.852675 4.763435,-2.775735 1.357755,-0.788685 -5.402645,3.202125 -4.069445,2.37261 1.53631,-0.95589 3.16143,-1.766495 4.678995,-2.751875 1.31305,-0.85258 -5.427505,3.12366 -4.064745,2.353035 1.58238,-0.89482 3.145335,-1.82361 4.723625,-2.72562 0.106275,-0.06074 0.219625,-0.10817 0.32944,-0.162255 0.81527,-0.42151 1.6442,-0.76703 2.554175,-0.93794 1.061195,-0.26806 2.092786,-0.63651 3.158086,-0.882545 0.70516,-0.117265 1.40871,-0.15052 2.12373,-0.12215 0.78314,10e-4 1.56627,0.003 2.3494,0.0035 0.83322,-1.8e-4 1.6664,-0.0072 2.49961,-0.01055 0.7087,0.001 1.41867,-5e-4 2.12535,0.06036 0.78171,0.08442 1.55377,0.23291 2.28034,0.54556 0.76121,0.29848 1.53902,0.567165 2.2291,1.01785 0.60385,0.384415 1.14723,0.851895 1.73169,1.264745 0.61612,0.488895 1.21228,0.992895 1.75756,1.5624 0.63762,0.64417 1.29892,1.26525 1.81034,2.020675 0.49704,0.804345 1.00918,1.58856 1.57412,2.34755 0.65916,1.078505 1.25432,2.190295 1.82568,3.318015 0.61782,1.03632 1.26283,2.060575 1.77559,3.154815 0.47417,1.155445 0.87079,2.33281 1.17217,3.545795 0.32661,1.05065 0.65996,2.1076 0.7405,3.211815 0.13661,0.993455 0.38725,1.95817 0.58456,2.93891 0.031,0.59648 0.0661,1.19893 0.26442,1.76812 0.22118,0.646485 0.3376,1.31491 0.40781,1.995205 -0.005,0.96726 -0.0179,1.935055 0.014,2.90197 0,0 -4.59015,2.3388 -4.59015,2.3388 z"
     inkscape:connector-curvature="0" />
  <path
     style="fill:none;stroke-width:0.5"
     id="path3713"
     d="m 97.463054,49.117236 c 0.12085,0.96881 0.533865,1.83707 1.001125,2.678515 0.44899,0.699975 0.904645,1.394455 1.33756,2.1049 0.438141,0.75131 0.848871,1.513745 1.244411,2.288565 0.47143,1.073455 1.05893,2.082135 1.75192,3.02635 0.86797,1.217425 1.67947,2.472525 2.50422,3.719225 0.96446,1.22975 1.85183,2.515295 2.7365,3.80275 0.8867,1.26561 1.78668,2.521235 2.61236,3.82795 1.18826,1.75217 2.44313,3.45739 3.73555,5.134295 0.97754,1.42364 2.16045,2.68856 3.19621,4.06505 0.98759,1.262825 1.9919,2.509585 3.01597,3.742785 1.39229,1.683285 2.84472,3.32217 4.37836,4.8783 0.95761,0.970045 1.91516,1.948865 2.96897,2.814215 1.03357,0.952615 2.14631,1.81919 3.28034,2.650045 0.82873,0.607355 1.69083,1.169545 2.44313,1.872325 0.56162,0.421995 1.02405,0.95302 1.60096,1.35475 0.5213,0.191555 1.02946,0.596285 1.60168,0.574285 0.57887,-1.81056 0.12679,-0.23239 -4.24573,2.351809 -0.0145,0.009 0.0383,-0.0211 0.034,-0.0374 -0.016,-0.06093 -0.0535,-0.11453 -0.0878,-0.167355 -0.12058,-0.18563 -0.26,-0.358335 -0.38726,-0.53945 -0.62413,-0.646015 -1.21122,-1.32546 -1.85598,-1.95363 -0.81554,-0.85437 -1.65989,-1.68125 -2.49685,-2.514795 -1.19957,-1.288595 -2.59064,-2.33874 -4.00876,-3.37132 -2.11917,-1.507045 -4.32606,-2.88284 -6.49489,-4.315055 -1.4957,-1.09065 -3.20365,-1.75855 -4.92517,-2.390785 -2.51379,-0.840265 -5.06915,-1.566625 -7.68547,-2.001475 -1.89557,-0.28849 -3.81489,-0.29053 -5.726746,-0.33084 -1.68956,-0.01315 -0.83752,-0.02475 -2.5561,0.0367 0,0 3.997776,-2.92418 3.997776,-2.92418 v 0 c 1.74308,-0.04955 0.87774,-0.0363 2.59601,-0.04075 1.93213,-0.0063 3.86934,0.05931 5.77657,0.397935 2.61986,0.49705 5.16329,1.299365 7.71108,2.077255 1.79942,0.577465 3.50536,1.33552 5.02869,2.476945 2.14674,1.452005 4.29287,2.904585 6.42922,4.37202 0.759,0.51953 1.54462,1.00141 2.28234,1.550735 0.70106,0.522025 1.2498,1.237125 1.91175,1.803795 0.83846,0.83222 1.6838,1.657375 2.5126,2.499155 0.66658,0.649825 1.28724,1.34124 1.92823,2.015755 0.0873,0.119395 0.84524,1.104235 0.72364,1.193475 -4.04535,2.968994 -2.73184,3.169964 -4.67995,2.782184 -0.60557,-0.18231 -1.18667,-0.46628 -1.72634,-0.792709 -0.56765,-0.439535 -1.06575,-0.9562 -1.62162,-1.41016 -0.74061,-0.681945 -1.57051,-1.249795 -2.37192,-1.856385 -1.11746,-0.871705 -2.24656,-1.733745 -3.3176,-2.661155 -1.03097,-0.90639 -1.98495,-1.896015 -2.9204,-2.900065 -1.52045,-1.58072 -2.93988,-3.254665 -4.378,-4.90978 -1.09708,-1.19228 -2.09008,-2.46646 -3.09003,-3.74064 -1.03869,-1.3708 -2.16667,-2.674405 -3.12499,-4.106625 -1.27337,-1.7127 -2.60495,-3.3804 -3.81991,-5.133595 -0.82326,-1.300585 -1.72991,-2.542815 -2.5989,-3.812765 -0.8896,-1.28761 -1.7867,-2.569565 -2.7441,-3.808145 -0.82575,-1.237185 -1.635116,-2.48553 -2.509246,-3.689585 -0.70468,-0.965125 -1.348095,-1.973625 -1.8207,-3.075115 -0.40421,-0.756995 -0.81675,-1.505815 -1.24449,-2.249335 -0.43737,-0.71695 -0.89378,-1.420575 -1.34208,-2.13037 -0.48331,-0.89893 -0.890865,-1.82307 -1.11617,-2.825165 0,0 4.556,-2.40342 4.556,-2.40342 z"
     inkscape:connector-curvature="0" />
  <path
     style="fill:none;stroke:#000000;stroke-width:0.5px;stroke-linecap:butt;stroke-linejoin:miter;stroke-opacity:1"
     d="m 106.94907,131.27821 -17.361106,-1.04166 v -4.51389 h 4.86111 l -1.041665,-30.902779 -39.583335,0.34722 -1.73611,-76.041665 88.541666,0.69445 -0.34722,72.56944 -33.33334,0.694445 0,31.944439 5.90278,-0.69444 0.80094,6.34233 z"
     id="path31"
     inkscape:connector-curvature="0"
     sodipodi:nodetypes="cccccccccccccc" />
  <path
     style="fill:#00ff00;stroke:#0000ff;stroke-width:0.34722221"
     d="m 99.540424,19.857931 c 22.343746,0.175945 40.635776,0.34395 40.648966,0.37334 0.0132,0.0294 -0.044,16.16845 -0.12719,35.86458 l -0.15114,35.81114 -8.20615,0.210505 c -4.51339,0.11578 -11.99522,0.308185 -16.62629,0.427565 l -8.42014,0.217055 v 16.309824 16.30983 l 2.92158,-0.24337 2.92158,-0.24336 0.23186,2.03511 c 0.12752,1.11931 0.30606,2.30335 0.39676,2.63119 0.11407,0.41234 -0.082,0.64779 -0.63608,0.76386 -2.38292,0.49919 -6.857,0.51247 -13.995426,0.0416 -4.39236,-0.28977 -8.103295,-0.52833 -8.246525,-0.53014 -0.14323,-0.002 -0.26042,-0.86267 -0.26042,-1.91301 v -1.90973 h 2.43056 c 2.42163,0 2.43053,-0.004 2.423965,-0.95486 -0.0035,-0.52517 -0.235035,-7.28298 -0.514245,-15.01736 -0.27921,-7.73437 -0.510625,-14.435534 -0.514245,-14.891459 l -0.0066,-0.82896 -19.791665,0.256905 c -19.12656,0.248275 -19.79178,0.23529 -19.795065,-0.386315 -0.0015,-0.35377 -0.390595,-17.1276 -0.863835,-37.27517 -0.47324,-20.147565 -0.862335,-36.827255 -0.86466,-37.06597 -0.003,-0.320575 0.83536,-0.418165 3.207585,-0.37334 1.766495,0.03335 21.49306,0.20464 43.83681,0.38059 z"
     id="path43"
     inkscape:connector-curvature="0" />
</svg>
