<?xml version="1.0" encoding="UTF-8" standalone="no"?>
<svg
   xmlns:dc="http://purl.org/dc/elements/1.1/"
   xmlns:cc="http://creativecommons.org/ns#"
   xmlns:rdf="http://www.w3.org/1999/02/22-rdf-syntax-ns#"
   xmlns:svg="http://www.w3.org/2000/svg"
   xmlns="http://www.w3.org/2000/svg"
   xmlns:sodipodi="http://sodipodi.sourceforge.net/DTD/sodipodi-0.dtd"
   xmlns:inkscape="http://www.inkscape.org/namespaces/inkscape"
   width="389.7735"
   height="337.55374"
   viewBox="0 0 194.88675 168.77687"
   version="1.1"
   id="svg12"
   sodipodi:docname="hexMyTank2.svg"
   inkscape:version="0.92.1 r15371">
  <metadata
     id="metadata18">
    <rdf:RDF>
      <cc:Work
         rdf:about="">
        <dc:format>image/svg+xml</dc:format>
        <dc:type
           rdf:resource="http://purl.org/dc/dcmitype/StillImage" />
        <dc:title></dc:title>
      </cc:Work>
    </rdf:RDF>
  </metadata>
  <defs
     id="defs16" />
  <sodipodi:namedview
     pagecolor="#ffffff"
     bordercolor="#666666"
     borderopacity="1"
     objecttolerance="10"
     gridtolerance="10"
     guidetolerance="10"
     inkscape:pageopacity="0"
     inkscape:pageshadow="2"
     inkscape:window-width="1366"
     inkscape:window-height="745"
     id="namedview14"
     showgrid="false"
     inkscape:zoom="1.44"
     inkscape:cx="58.081194"
     inkscape:cy="168.77688"
     inkscape:window-x="1432"
     inkscape:window-y="-8"
     inkscape:window-maximized="1"
     inkscape:current-layer="svg12" />
  <polygon
     style="fill:none;stroke:#000000;stroke-width:2.5px"
     points="4,100 52,16.861561 148,16.861561 196,100 148,183.13844 52,183.13844 "
     id="polygon10"
     transform="translate(-2.5566243,-15.611561)" />
  <path
     style="fill:none;stroke-width:0.69444442"
     d="M 99.62059,330.54769 C 99.074646,329.68832 77.828715,292.93742 52.407408,248.87903 L 6.186853,168.77287 53.456016,86.899861 100.72518,5.0268615 l 94.19884,0.00934 94.19884,0.00934 47.09451,81.6139765 c 25.90197,44.887692 46.99572,82.023792 46.875,82.524672 -0.12073,0.50088 -21.27081,37.36413 -47.00016,81.91834 l -46.78066,81.00765 h -94.34917 -94.34916 z"
     id="path3695"
     inkscape:connector-curvature="0"
     transform="scale(0.5)" />
  <path
     style="fill:none;stroke-width:0.69444442"
     d="M 99.62059,330.54769 C 99.074646,329.68832 77.828715,292.93742 52.407408,248.87903 L 6.186853,168.77287 53.456016,86.899861 100.72518,5.0268615 l 94.19884,0.00934 94.19884,0.00934 47.09451,81.6139765 c 25.90197,44.887692 46.99572,82.023792 46.875,82.524672 -0.12073,0.50088 -21.27081,37.36413 -47.00016,81.91834 l -46.78066,81.00765 h -94.34917 -94.34916 z"
     id="path3697"
     inkscape:connector-curvature="0"
     transform="scale(0.5)" />
  <path
     style="fill:none;stroke-width:0.69444442"
     d="M 99.62059,330.54769 C 99.074646,329.68832 77.828715,292.93742 52.407408,248.87903 L 6.186853,168.77287 53.456016,86.899861 100.72518,5.0268615 l 94.19884,0.00934 94.19884,0.00934 47.09451,81.6139765 c 25.90197,44.887692 46.99572,82.023792 46.875,82.524672 -0.12073,0.50088 -21.27081,37.36413 -47.00016,81.91834 l -46.78066,81.00765 h -94.34917 -94.34916 z"
     id="path3699"
     inkscape:connector-curvature="0"
     transform="scale(0.5)" />
  <path
     style="fill:none;stroke-width:0.69444442"
     d="M 99.62059,330.54769 C 99.074646,329.68832 77.828715,292.93742 52.407408,248.87903 L 6.186853,168.77287 53.456016,86.899861 100.72518,5.0268615 l 94.19884,0.00934 94.19884,0.00934 47.09451,81.6139765 c 25.90197,44.887692 46.99572,82.023792 46.875,82.524672 -0.12073,0.50088 -21.27081,37.36413 -47.00016,81.91834 l -46.78066,81.00765 h -94.34917 -94.34916 z"
     id="path3701"
     inkscape:connector-curvature="0"
     transform="scale(0.5)" />
  <path
     style="fill:none;stroke-width:0.69444442"
     d="M 99.62059,330.54769 C 99.074646,329.68832 77.828715,292.93742 52.407408,248.87903 L 6.186853,168.77287 53.456016,86.899861 100.72518,5.0268615 l 94.19884,0.00934 94.19884,0.00934 47.09451,81.6139765 c 25.90197,44.887692 46.99572,82.023792 46.875,82.524672 -0.12073,0.50088 -21.27081,37.36413 -47.00016,81.91834 l -46.78066,81.00765 h -94.34917 -94.34916 z"
     id="path3703"
     inkscape:connector-curvature="0"
     transform="scale(0.5)" />
  <path
     style="fill:none;stroke-width:0.69444442"
     d="M 99.62059,330.54769 C 99.074646,329.68832 77.828715,292.93742 52.407408,248.87903 L 6.186853,168.77287 53.456016,86.899861 100.72518,5.0268615 l 94.19884,0.00934 94.19884,0.00934 47.09451,81.6139765 c 25.90197,44.887692 46.99572,82.023792 46.875,82.524672 -0.12073,0.50088 -21.27081,37.36413 -47.00016,81.91834 l -46.78066,81.00765 h -94.34917 -94.34916 z"
     id="path3705"
     inkscape:connector-curvature="0"
     transform="scale(0.5)" />
  <path
     style="fill:none;stroke-width:0.69444442"
     d="M 99.62059,330.54769 C 99.074646,329.68832 77.828715,292.93742 52.407408,248.87903 L 6.186853,168.77287 53.456016,86.899861 100.72518,5.0268615 l 94.19884,0.00934 94.19884,0.00934 47.09451,81.6139765 c 25.90197,44.887692 46.99572,82.023792 46.875,82.524672 -0.12073,0.50088 -21.27081,37.36413 -47.00016,81.91834 l -46.78066,81.00765 h -94.34917 -94.34916 z"
     id="path3707"
     inkscape:connector-curvature="0"
     transform="scale(0.5)" />
  <path
     style="fill:none;stroke-width:0.69444442"
     d="M 99.62059,330.54769 C 99.074646,329.68832 77.828715,292.93742 52.407408,248.87903 L 6.186853,168.77287 53.456016,86.899861 100.72518,5.0268615 l 94.19884,0.00934 94.19884,0.00934 47.09451,81.6139765 c 25.90197,44.887692 46.99572,82.023792 46.875,82.524672 -0.12073,0.50088 -21.27081,37.36413 -47.00016,81.91834 l -46.78066,81.00765 h -94.34917 -94.34916 z"
     id="path3709"
     inkscape:connector-curvature="0"
     transform="scale(0.5)" />
  <path
     style="fill:none;stroke-width:0.5"
     id="path3711"
     d="m 99.808969,41.575141 c -0.85729,0.458468 -1.693413,0.955291 -2.532465,1.446011 -0.509239,0.360393 -0.993928,0.757096 -1.406241,1.225859 -0.42023,0.49621 -0.946865,0.875041 -1.489291,1.224862 -0.784327,0.599657 -1.480995,1.300611 -2.251555,1.919293 -0.877093,0.63492 -1.652088,1.392499 -2.40743,2.164469 -0.881805,0.857489 -1.678855,1.786498 -2.426702,2.761248 -0.680816,0.972123 -1.232368,2.023866 -1.844092,3.03866 -0.706324,1.04239 -1.333892,2.12644 -1.900434,3.249301 -0.359048,0.874181 -0.819976,1.69594 -1.248721,2.535572 -0.338731,0.80429 -0.569601,1.637753 -0.798782,2.477099 -0.21647,0.743743 -0.293588,1.50902 -0.416148,2.26879 -0.03747,0.695492 -0.216624,1.366786 -0.203298,2.064597 -0.05459,0.804234 0.171127,1.581792 0.264268,2.370746 0.107689,0.747133 0.405832,1.437653 0.73861,2.107871 0.323424,0.621787 0.679407,1.225867 1.031606,1.831594 0.415267,0.716263 0.825768,1.435271 1.241039,2.151543 0.396035,0.680953 0.79164,1.36216 1.186554,2.043771 0.294564,0.64872 0.755367,1.159835 1.203762,1.700388 0.806755,0.707269 1.5747,1.45692 2.30858,2.239288 0.58744,0.744204 1.431608,1.122936 2.17629,1.662514 3.869607,2.026115 -14.86819,-8.359541 0.967438,0.557041 1.37305,0.773123 -5.481771,-3.109066 -4.088554,-2.372902 0.689374,0.36426 10.853615,6.258642 0.725141,0.39269 0.903145,0.510773 1.867312,0.875049 2.855389,1.180018 1.184224,0.351697 2.361383,0.702796 3.575686,0.933272 1.783223,0.341512 3.589295,0.539571 5.404161,0.572939 1.16568,-0.0347 2.32983,0.01982 3.49437,0.04845 1.02676,0.0075 2.05344,-0.0078 3.08014,-0.01058 0.9286,0.148243 1.78203,0.05483 2.67839,-0.21293 1.07598,-0.362788 2.08886,-0.880657 3.08282,-1.423635 0.76755,-0.448916 1.57265,-0.840071 2.25928,-1.41028 0.34796,-0.382147 0.61665,-0.817728 0.86105,-1.270443 0.363,-0.537245 0.55202,-1.159585 0.83787,-1.737218 0.38407,-0.767001 0.70082,-1.570054 0.96943,-2.384147 0.2714,-0.692985 0.41972,-1.424626 0.6547,-2.129396 0.11239,-0.591977 0.23775,-1.184616 0.31488,-1.782883 0.0537,-0.77368 0.23029,-1.52817 0.25996,-2.304998 0.0541,-1.03425 0.10141,-2.067279 0.10702,-3.103143 -0.0318,-1.008622 0.0594,-2.014063 0.0892,-3.020996 0.009,-0.893809 -0.10461,-1.771536 -0.29046,-2.643777 -0.0378,-0.136006 -0.0755,-0.272024 -0.11325,-0.408012 -0.0148,-0.05315 -0.13219,-0.446177 -0.1371,-0.548464 -0.0953,-1.983551 4.16925,0.909703 4.76127,2.617872 0.0319,0.35671 0.0105,0.181998 0.0629,0.52425 0,0 -4.63137,-2.271354 -4.63137,-2.271354 v 0 c -0.0508,-0.328121 -0.0204,-0.170723 -0.0891,-0.472641 -0.42221,-2.006071 4.18305,0.423573 4.54629,1.857249 0.0423,0.167052 0.0701,0.337484 0.10879,0.505433 0.0331,0.143786 0.0661,0.287584 0.0992,0.431379 0.16548,0.9075 0.26364,1.818513 0.22555,2.743295 -0.0423,1.004677 -0.0984,2.009577 -0.0816,3.015529 -0.0351,1.043585 -0.0662,2.087025 -0.0984,3.130208 -0.0616,0.787806 -0.21676,1.562416 -0.26874,2.350912 -0.10194,0.623493 -0.18775,1.253165 -0.35625,1.862374 -0.23218,0.70503 -0.40251,1.430252 -0.68436,2.118324 -0.29271,0.830223 -0.58395,1.665336 -0.97804,2.454049 -0.28375,0.58373 -0.47673,1.211263 -0.83617,1.756782 -0.26925,0.516098 -0.58548,0.998512 -0.97281,1.435192 -0.71299,0.60163 -1.54258,1.013214 -2.35401,1.467512 -1.01656,0.563586 -2.03881,1.119724 -3.142,1.49995 -0.90669,0.317348 -1.78081,0.620491 -2.74845,0.383205 -1.02613,-0.08122 -2.06469,0.02056 -3.09373,-0.02475 -1.17667,0.03406 -2.35184,-0.111811 -3.52985,-0.06847 -1.82734,0.0085 -3.64932,-0.211968 -5.450631,-0.508695 -1.224338,-0.170885 -2.389065,-0.493331 -3.571247,-0.849901 -1.000516,-0.285664 -1.989132,-0.598567 -2.910565,-1.091236 -1.59519,-0.912461 -3.191643,-1.822739 -4.785574,-2.737388 -1.361899,-0.781508 5.474444,3.077765 4.089463,2.337938 -1.59598,-0.852539 -3.110545,-1.854632 -4.722691,-2.676192 -1.394881,-0.710844 5.418921,3.138528 4.07016,2.343655 -1.566127,-0.922971 -3.15196,-1.812135 -4.722268,-2.727969 -0.10574,-0.06167 -0.203491,-0.136116 -0.305237,-0.204176 -0.772674,-0.495289 -1.486368,-1.040404 -2.089368,-1.74301 -0.762744,-0.784992 -1.597626,-1.49415 -2.343349,-2.29371 -0.454134,-0.552053 -0.834711,-1.144723 -1.167652,-1.778133 -0.390702,-0.678715 -0.780535,-1.357925 -1.171669,-2.03639 -0.416766,-0.7215 -0.839433,-1.43954 -1.258939,-2.159446 -0.353487,-0.614257 -0.709771,-1.228359 -1.010404,-1.870792 -0.317743,-0.719186 -0.575177,-1.462055 -0.667699,-2.247608 -0.122116,-0.808471 -0.278333,-1.616417 -0.233069,-2.439387 0.03099,-0.715152 0.164151,-1.419473 0.229457,-2.13206 0.115338,-0.778018 0.253735,-1.546308 0.474298,-2.303291 0.23906,-0.874276 0.446278,-1.757523 0.844788,-2.578134 0.448061,-0.832626 0.871141,-1.66826 1.245978,-2.537003 0.604433,-1.110101 1.269691,-2.18142 1.960643,-3.240097 0.588572,-1.053203 1.153095,-2.12393 1.844355,-3.115113 0.76356,-0.988366 1.584878,-1.920532 2.484663,-2.788027 0.746587,-0.808173 1.495258,-1.625338 2.411266,-2.247195 0.79205,-0.615039 1.5022,-1.314453 2.252891,-1.975699 0.501042,-0.32513 1.005259,-0.6567 1.399027,-1.113054 0.449282,-0.51479 0.969943,-0.94983 1.523991,-1.350781 0.840371,-0.478953 1.684756,-0.952025 2.506204,-1.463066 0,0 4.320538,2.805791 4.320538,2.805791 z"
     inkscape:connector-curvature="0" />
  <path
     style="fill:none;stroke-width:0.5"
     id="path3713"
     d="m 73.213861,87.284792 c 0.778589,-0.589064 1.324017,-1.380876 1.8191,-2.206257 0.381701,-0.738825 0.755311,-1.480673 1.154117,-2.210811 0.431583,-0.755096 0.886504,-1.49202 1.35975,-2.221973 0.693924,-0.944998 1.273717,-1.958128 1.744933,-3.030387 0.620339,-1.360392 1.301537,-2.690722 1.968834,-4.028331 0.582765,-1.450122 1.252397,-2.861375 1.92503,-4.271249 0.652701,-1.40071 1.290114,-2.807928 2.00892,-4.176349 0.923296,-1.905144 1.772622,-3.844508 2.578657,-5.802225 0.744136,-1.558398 1.248136,-3.215284 1.922332,-4.800524 0.599841,-1.486695 1.177414,-2.979828 1.733362,-4.483299 0.76162,-2.047405 1.454723,-4.124685 2.035551,-6.230921 0.361279,-1.314337 0.730184,-2.633014 0.952697,-3.978311 0.308204,-1.371405 0.502307,-2.768358 0.654834,-4.165884 0.111622,-1.021375 0.167441,-2.049075 0.399918,-3.051971 0.08465,-0.697375 0.313312,-1.363368 0.372768,-2.063847 -0.09476,-0.547241 0.0017,-1.189681 -0.303497,-1.674243 -1.857426,0.403964 -0.264648,0.0064 4.159595,2.50101 0.0147,0.0083 -0.0374,-0.02258 -0.04939,-0.01075 -0.04477,0.04432 -0.07246,0.103554 -0.101054,0.15968 -0.10047,0.19724 -0.180327,0.404334 -0.273548,0.605102 -0.247402,0.863515 -0.542274,1.711673 -0.763903,2.584141 -0.332138,1.133459 -0.626062,2.278127 -0.929451,3.419733 -0.516171,1.683155 -0.730088,3.41293 -0.915271,5.157343 -0.245552,2.588782 -0.333581,5.187902 -0.489503,7.782268 -0.19668,1.840639 0.07888,3.653721 0.392107,5.460719 0.529202,2.597134 1.177838,5.173325 2.109407,7.656549 0.697943,1.785853 1.655843,3.449057 2.576853,5.124927 0.8334,1.469777 0.39733,0.737689 1.30984,2.195298 0,0 -4.531305,-2.000085 -4.531305,-2.000085 v 0 c -0.914454,-1.484781 -0.470306,-0.741995 -1.333298,-2.22784 -0.971521,-1.670124 -1.883306,-3.380602 -2.543663,-5.201624 -0.879472,-2.51739 -1.456362,-5.121223 -2.056584,-7.716619 -0.399611,-1.847076 -0.596084,-3.703486 -0.369246,-5.593441 0.184101,-2.585138 0.369007,-5.170031 0.571668,-7.753882 0.07043,-0.917074 0.09494,-1.838385 0.201809,-2.751928 0.101554,-0.868152 0.446481,-1.700921 0.606255,-2.557526 0.301493,-1.142237 0.593428,-2.286901 0.908031,-3.425553 0.229475,-0.902187 0.517931,-1.785398 0.781583,-2.677769 0.05977,-0.135258 0.533675,-1.284117 0.671757,-1.223432 4.593903,2.018877 4.111189,0.780866 4.749423,2.661861 0.1449,0.6156 0.18952,1.260832 0.17666,1.891411 -0.0968,0.711371 -0.29522,1.401067 -0.410424,2.109448 -0.220277,0.98236 -0.297099,1.984999 -0.421717,2.982336 -0.196188,1.403601 -0.378187,2.81245 -0.645827,4.203703 -0.269472,1.346041 -0.649523,2.667025 -1.051333,3.979169 -0.608719,2.107108 -1.34868,4.173348 -2.062992,6.246354 -0.484004,1.546239 -1.090979,3.043288 -1.694474,4.546364 -0.667802,1.584932 -1.232768,3.213594 -1.993946,4.759633 -0.84656,1.959117 -1.62504,3.946149 -2.535872,5.874933 -0.714707,1.36326 -1.337185,2.769557 -2.002498,4.1571 -0.670306,1.414217 -1.331959,2.83211 -1.925903,4.280528 -0.658556,1.333718 -1.334972,2.658821 -1.94065,4.017867 -0.483482,1.092833 -1.035162,2.154297 -1.752777,3.11433 -0.453472,0.728554 -0.895699,1.460234 -1.325737,2.202427 -0.402212,0.737249 -0.783364,1.484324 -1.173914,2.227461 -0.536841,0.868024 -1.133393,1.683047 -1.88858,2.379214 0,0 -4.359423,-2.743902 -4.359423,-2.743902 z"
     inkscape:connector-curvature="0" />
  <path
     style="fill:none;stroke:#000000;stroke-width:0.5px;stroke-linecap:butt;stroke-linejoin:miter;stroke-opacity:1"
     d="m 139.62434,37.98917 7.77845,15.555994 -3.90914,2.256945 -2.43056,-4.209845 -26.24175,16.353497 20.09236,34.106559 -64.985955,39.52435 -43.669421,-77.026554 63.020589,-35.984018 17.268077,28.520292 27.6647,-15.97222 -3.5528,-4.764734 5.09215,-3.864793 z"
     id="path31"
     inkscape:connector-curvature="0"
     sodipodi:nodetypes="cccccccccccccc" />
  <path
     style="fill:#00ff00;stroke:#0000ff;stroke-width:0.34722221"
     d="M 46.835875,100.11539 C 35.816373,80.677162 26.815854,64.751796 26.834714,64.725683 c 0.01886,-0.02613 14.024314,-8.046077 31.12323,-17.822145 l 31.088927,-17.774679 4.28538,7.001487 c 2.356961,3.850816 6.264504,10.234068 8.683429,14.185007 l 4.39804,7.183527 14.12473,-8.154914 14.12472,-8.154913 -1.67155,-2.408479 -1.67155,-2.408484 1.64653,-1.218353 c 0.90559,-0.670092 1.84172,-1.416729 2.08029,-1.659193 0.30007,-0.304958 0.60201,-0.252886 0.97957,0.168929 1.62377,1.814072 3.87231,5.682098 7.03369,12.099621 1.94524,3.948777 3.59411,7.281821 3.66415,7.406768 0.0701,0.124941 -0.61688,0.656864 -1.52651,1.182038 l -1.65386,0.954861 -1.21528,-2.104927 c -1.21082,-2.097193 -1.2183,-2.103151 -2.03892,-1.621784 -0.45306,0.265617 -6.18973,3.845039 -12.74829,7.954029 -6.55857,4.108991 -12.24623,7.659982 -12.63927,7.89108 l -0.7146,0.420196 10.11832,17.011632 c 9.7783,16.439953 10.09966,17.022543 9.56298,17.336183 -0.30563,0.17819 -14.63764,8.90207 -31.84933,19.38569 -17.211683,10.48362 -31.462171,19.16043 -31.667741,19.2818 -0.276127,0.16289 -0.779822,-0.51436 -1.927115,-2.59118 -0.854365,-1.5465 -10.569306,-18.71585 -21.588804,-38.15408 z"
     id="path43"
     inkscape:connector-curvature="0" />
</svg>
